<?xml version="1.0" encoding="utf-8" standalone="no"?>
<!DOCTYPE svg PUBLIC "-//W3C//DTD SVG 1.1//EN"
  "http://www.w3.org/Graphics/SVG/1.1/DTD/svg11.dtd">
<svg xmlns:xlink="http://www.w3.org/1999/xlink" width="432pt" height="288pt" viewBox="0 0 432 288" xmlns="http://www.w3.org/2000/svg" version="1.1">
 <metadata>
  <rdf:RDF xmlns:dc="http://purl.org/dc/elements/1.1/" xmlns:cc="http://creativecommons.org/ns#" xmlns:rdf="http://www.w3.org/1999/02/22-rdf-syntax-ns#">
   <cc:Work>
    <dc:type rdf:resource="http://purl.org/dc/dcmitype/StillImage"/>
    <dc:date>2023-02-20T14:44:41.347994</dc:date>
    <dc:format>image/svg+xml</dc:format>
    <dc:creator>
     <cc:Agent>
      <dc:title>Matplotlib v3.5.1, https://matplotlib.org/</dc:title>
     </cc:Agent>
    </dc:creator>
   </cc:Work>
  </rdf:RDF>
 </metadata>
 <defs>
  <style type="text/css">*{stroke-linejoin: round; stroke-linecap: butt}</style>
 </defs>
 <g id="figure_1">
  <g id="patch_1">
   <path d="M 0 288 
L 432 288 
L 432 0 
L 0 0 
L 0 288 
z
" style="fill: none"/>
  </g>
  <g id="axes_1">
   <g id="patch_2">
    <path d="M 54 252 
L 388.8 252 
L 388.8 34.56 
L 54 34.56 
z
" style="fill: #ffffff"/>
   </g>
   <g id="matplotlib.axis_1">
    <g id="xtick_1">
     <g id="line2d_1">
      <path d="M 78.290045 252 
L 78.290045 34.56 
" clip-path="url(#p529e7d15c8)" style="fill: none; stroke: #b0b0b0; stroke-width: 0.8; stroke-linecap: square"/>
     </g>
     <g id="line2d_2">
      <defs>
       <path id="m17dd161be2" d="M 0 0 
L 0 3.5 
" style="stroke: #000000; stroke-width: 0.8"/>
      </defs>
      <g>
       <use xlink:href="#m17dd161be2" x="78.290045" y="252" style="stroke: #000000; stroke-width: 0.8"/>
      </g>
     </g>
     <g id="text_1">
      <!-- −0.4 -->
      <g transform="translate(66.148639 266.598437)scale(0.1 -0.1)">
       <defs>
        <path id="DejaVuSans-2212" d="M 678 2272 
L 4684 2272 
L 4684 1741 
L 678 1741 
L 678 2272 
z
" transform="scale(0.015625)"/>
        <path id="DejaVuSans-30" d="M 2034 4250 
Q 1547 4250 1301 3770 
Q 1056 3291 1056 2328 
Q 1056 1369 1301 889 
Q 1547 409 2034 409 
Q 2525 409 2770 889 
Q 3016 1369 3016 2328 
Q 3016 3291 2770 3770 
Q 2525 4250 2034 4250 
z
M 2034 4750 
Q 2819 4750 3233 4129 
Q 3647 3509 3647 2328 
Q 3647 1150 3233 529 
Q 2819 -91 2034 -91 
Q 1250 -91 836 529 
Q 422 1150 422 2328 
Q 422 3509 836 4129 
Q 1250 4750 2034 4750 
z
" transform="scale(0.015625)"/>
        <path id="DejaVuSans-2e" d="M 684 794 
L 1344 794 
L 1344 0 
L 684 0 
L 684 794 
z
" transform="scale(0.015625)"/>
        <path id="DejaVuSans-34" d="M 2419 4116 
L 825 1625 
L 2419 1625 
L 2419 4116 
z
M 2253 4666 
L 3047 4666 
L 3047 1625 
L 3713 1625 
L 3713 1100 
L 3047 1100 
L 3047 0 
L 2419 0 
L 2419 1100 
L 313 1100 
L 313 1709 
L 2253 4666 
z
" transform="scale(0.015625)"/>
       </defs>
       <use xlink:href="#DejaVuSans-2212"/>
       <use xlink:href="#DejaVuSans-30" x="83.789062"/>
       <use xlink:href="#DejaVuSans-2e" x="147.412109"/>
       <use xlink:href="#DejaVuSans-34" x="179.199219"/>
      </g>
     </g>
    </g>
    <g id="xtick_2">
     <g id="line2d_3">
      <path d="M 120.474584 252 
L 120.474584 34.56 
" clip-path="url(#p529e7d15c8)" style="fill: none; stroke: #b0b0b0; stroke-width: 0.8; stroke-linecap: square"/>
     </g>
     <g id="line2d_4">
      <g>
       <use xlink:href="#m17dd161be2" x="120.474584" y="252" style="stroke: #000000; stroke-width: 0.8"/>
      </g>
     </g>
     <g id="text_2">
      <!-- −0.2 -->
      <g transform="translate(108.333178 266.598437)scale(0.1 -0.1)">
       <defs>
        <path id="DejaVuSans-32" d="M 1228 531 
L 3431 531 
L 3431 0 
L 469 0 
L 469 531 
Q 828 903 1448 1529 
Q 2069 2156 2228 2338 
Q 2531 2678 2651 2914 
Q 2772 3150 2772 3378 
Q 2772 3750 2511 3984 
Q 2250 4219 1831 4219 
Q 1534 4219 1204 4116 
Q 875 4013 500 3803 
L 500 4441 
Q 881 4594 1212 4672 
Q 1544 4750 1819 4750 
Q 2544 4750 2975 4387 
Q 3406 4025 3406 3419 
Q 3406 3131 3298 2873 
Q 3191 2616 2906 2266 
Q 2828 2175 2409 1742 
Q 1991 1309 1228 531 
z
" transform="scale(0.015625)"/>
       </defs>
       <use xlink:href="#DejaVuSans-2212"/>
       <use xlink:href="#DejaVuSans-30" x="83.789062"/>
       <use xlink:href="#DejaVuSans-2e" x="147.412109"/>
       <use xlink:href="#DejaVuSans-32" x="179.199219"/>
      </g>
     </g>
    </g>
    <g id="xtick_3">
     <g id="line2d_5">
      <path d="M 162.659123 252 
L 162.659123 34.56 
" clip-path="url(#p529e7d15c8)" style="fill: none; stroke: #b0b0b0; stroke-width: 0.8; stroke-linecap: square"/>
     </g>
     <g id="line2d_6">
      <g>
       <use xlink:href="#m17dd161be2" x="162.659123" y="252" style="stroke: #000000; stroke-width: 0.8"/>
      </g>
     </g>
     <g id="text_3">
      <!-- 0.0 -->
      <g transform="translate(154.707561 266.598437)scale(0.1 -0.1)">
       <use xlink:href="#DejaVuSans-30"/>
       <use xlink:href="#DejaVuSans-2e" x="63.623047"/>
       <use xlink:href="#DejaVuSans-30" x="95.410156"/>
      </g>
     </g>
    </g>
    <g id="xtick_4">
     <g id="line2d_7">
      <path d="M 204.843662 252 
L 204.843662 34.56 
" clip-path="url(#p529e7d15c8)" style="fill: none; stroke: #b0b0b0; stroke-width: 0.8; stroke-linecap: square"/>
     </g>
     <g id="line2d_8">
      <g>
       <use xlink:href="#m17dd161be2" x="204.843662" y="252" style="stroke: #000000; stroke-width: 0.8"/>
      </g>
     </g>
     <g id="text_4">
      <!-- 0.2 -->
      <g transform="translate(196.8921 266.598437)scale(0.1 -0.1)">
       <use xlink:href="#DejaVuSans-30"/>
       <use xlink:href="#DejaVuSans-2e" x="63.623047"/>
       <use xlink:href="#DejaVuSans-32" x="95.410156"/>
      </g>
     </g>
    </g>
    <g id="xtick_5">
     <g id="line2d_9">
      <path d="M 247.028201 252 
L 247.028201 34.56 
" clip-path="url(#p529e7d15c8)" style="fill: none; stroke: #b0b0b0; stroke-width: 0.8; stroke-linecap: square"/>
     </g>
     <g id="line2d_10">
      <g>
       <use xlink:href="#m17dd161be2" x="247.028201" y="252" style="stroke: #000000; stroke-width: 0.8"/>
      </g>
     </g>
     <g id="text_5">
      <!-- 0.4 -->
      <g transform="translate(239.076639 266.598437)scale(0.1 -0.1)">
       <use xlink:href="#DejaVuSans-30"/>
       <use xlink:href="#DejaVuSans-2e" x="63.623047"/>
       <use xlink:href="#DejaVuSans-34" x="95.410156"/>
      </g>
     </g>
    </g>
    <g id="xtick_6">
     <g id="line2d_11">
      <path d="M 289.21274 252 
L 289.21274 34.56 
" clip-path="url(#p529e7d15c8)" style="fill: none; stroke: #b0b0b0; stroke-width: 0.8; stroke-linecap: square"/>
     </g>
     <g id="line2d_12">
      <g>
       <use xlink:href="#m17dd161be2" x="289.21274" y="252" style="stroke: #000000; stroke-width: 0.8"/>
      </g>
     </g>
     <g id="text_6">
      <!-- 0.6 -->
      <g transform="translate(281.261178 266.598437)scale(0.1 -0.1)">
       <defs>
        <path id="DejaVuSans-36" d="M 2113 2584 
Q 1688 2584 1439 2293 
Q 1191 2003 1191 1497 
Q 1191 994 1439 701 
Q 1688 409 2113 409 
Q 2538 409 2786 701 
Q 3034 994 3034 1497 
Q 3034 2003 2786 2293 
Q 2538 2584 2113 2584 
z
M 3366 4563 
L 3366 3988 
Q 3128 4100 2886 4159 
Q 2644 4219 2406 4219 
Q 1781 4219 1451 3797 
Q 1122 3375 1075 2522 
Q 1259 2794 1537 2939 
Q 1816 3084 2150 3084 
Q 2853 3084 3261 2657 
Q 3669 2231 3669 1497 
Q 3669 778 3244 343 
Q 2819 -91 2113 -91 
Q 1303 -91 875 529 
Q 447 1150 447 2328 
Q 447 3434 972 4092 
Q 1497 4750 2381 4750 
Q 2619 4750 2861 4703 
Q 3103 4656 3366 4563 
z
" transform="scale(0.015625)"/>
       </defs>
       <use xlink:href="#DejaVuSans-30"/>
       <use xlink:href="#DejaVuSans-2e" x="63.623047"/>
       <use xlink:href="#DejaVuSans-36" x="95.410156"/>
      </g>
     </g>
    </g>
    <g id="xtick_7">
     <g id="line2d_13">
      <path d="M 331.397279 252 
L 331.397279 34.56 
" clip-path="url(#p529e7d15c8)" style="fill: none; stroke: #b0b0b0; stroke-width: 0.8; stroke-linecap: square"/>
     </g>
     <g id="line2d_14">
      <g>
       <use xlink:href="#m17dd161be2" x="331.397279" y="252" style="stroke: #000000; stroke-width: 0.8"/>
      </g>
     </g>
     <g id="text_7">
      <!-- 0.8 -->
      <g transform="translate(323.445717 266.598437)scale(0.1 -0.1)">
       <defs>
        <path id="DejaVuSans-38" d="M 2034 2216 
Q 1584 2216 1326 1975 
Q 1069 1734 1069 1313 
Q 1069 891 1326 650 
Q 1584 409 2034 409 
Q 2484 409 2743 651 
Q 3003 894 3003 1313 
Q 3003 1734 2745 1975 
Q 2488 2216 2034 2216 
z
M 1403 2484 
Q 997 2584 770 2862 
Q 544 3141 544 3541 
Q 544 4100 942 4425 
Q 1341 4750 2034 4750 
Q 2731 4750 3128 4425 
Q 3525 4100 3525 3541 
Q 3525 3141 3298 2862 
Q 3072 2584 2669 2484 
Q 3125 2378 3379 2068 
Q 3634 1759 3634 1313 
Q 3634 634 3220 271 
Q 2806 -91 2034 -91 
Q 1263 -91 848 271 
Q 434 634 434 1313 
Q 434 1759 690 2068 
Q 947 2378 1403 2484 
z
M 1172 3481 
Q 1172 3119 1398 2916 
Q 1625 2713 2034 2713 
Q 2441 2713 2670 2916 
Q 2900 3119 2900 3481 
Q 2900 3844 2670 4047 
Q 2441 4250 2034 4250 
Q 1625 4250 1398 4047 
Q 1172 3844 1172 3481 
z
" transform="scale(0.015625)"/>
       </defs>
       <use xlink:href="#DejaVuSans-30"/>
       <use xlink:href="#DejaVuSans-2e" x="63.623047"/>
       <use xlink:href="#DejaVuSans-38" x="95.410156"/>
      </g>
     </g>
    </g>
    <g id="xtick_8">
     <g id="line2d_15">
      <path d="M 373.581818 252 
L 373.581818 34.56 
" clip-path="url(#p529e7d15c8)" style="fill: none; stroke: #b0b0b0; stroke-width: 0.8; stroke-linecap: square"/>
     </g>
     <g id="line2d_16">
      <g>
       <use xlink:href="#m17dd161be2" x="373.581818" y="252" style="stroke: #000000; stroke-width: 0.8"/>
      </g>
     </g>
     <g id="text_8">
      <!-- 1.0 -->
      <g transform="translate(365.630256 266.598437)scale(0.1 -0.1)">
       <defs>
        <path id="DejaVuSans-31" d="M 794 531 
L 1825 531 
L 1825 4091 
L 703 3866 
L 703 4441 
L 1819 4666 
L 2450 4666 
L 2450 531 
L 3481 531 
L 3481 0 
L 794 0 
L 794 531 
z
" transform="scale(0.015625)"/>
       </defs>
       <use xlink:href="#DejaVuSans-31"/>
       <use xlink:href="#DejaVuSans-2e" x="63.623047"/>
       <use xlink:href="#DejaVuSans-30" x="95.410156"/>
      </g>
     </g>
    </g>
    <g id="text_9">
     <!-- x -->
     <g transform="translate(218.440625 280.276563)scale(0.1 -0.1)">
      <defs>
       <path id="DejaVuSans-78" d="M 3513 3500 
L 2247 1797 
L 3578 0 
L 2900 0 
L 1881 1375 
L 863 0 
L 184 0 
L 1544 1831 
L 300 3500 
L 978 3500 
L 1906 2253 
L 2834 3500 
L 3513 3500 
z
" transform="scale(0.015625)"/>
      </defs>
      <use xlink:href="#DejaVuSans-78"/>
     </g>
    </g>
   </g>
   <g id="matplotlib.axis_2">
    <g id="ytick_1">
     <g id="line2d_17">
      <path d="M 54 238.156839 
L 388.8 238.156839 
" clip-path="url(#p529e7d15c8)" style="fill: none; stroke: #b0b0b0; stroke-width: 0.8; stroke-linecap: square"/>
     </g>
     <g id="line2d_18">
      <defs>
       <path id="m46de8e5bca" d="M 0 0 
L -3.5 0 
" style="stroke: #000000; stroke-width: 0.8"/>
      </defs>
      <g>
       <use xlink:href="#m46de8e5bca" x="54" y="238.156839" style="stroke: #000000; stroke-width: 0.8"/>
      </g>
     </g>
     <g id="text_10">
      <!-- −3.0 -->
      <g transform="translate(22.717187 241.956058)scale(0.1 -0.1)">
       <defs>
        <path id="DejaVuSans-33" d="M 2597 2516 
Q 3050 2419 3304 2112 
Q 3559 1806 3559 1356 
Q 3559 666 3084 287 
Q 2609 -91 1734 -91 
Q 1441 -91 1130 -33 
Q 819 25 488 141 
L 488 750 
Q 750 597 1062 519 
Q 1375 441 1716 441 
Q 2309 441 2620 675 
Q 2931 909 2931 1356 
Q 2931 1769 2642 2001 
Q 2353 2234 1838 2234 
L 1294 2234 
L 1294 2753 
L 1863 2753 
Q 2328 2753 2575 2939 
Q 2822 3125 2822 3475 
Q 2822 3834 2567 4026 
Q 2313 4219 1838 4219 
Q 1578 4219 1281 4162 
Q 984 4106 628 3988 
L 628 4550 
Q 988 4650 1302 4700 
Q 1616 4750 1894 4750 
Q 2613 4750 3031 4423 
Q 3450 4097 3450 3541 
Q 3450 3153 3228 2886 
Q 3006 2619 2597 2516 
z
" transform="scale(0.015625)"/>
       </defs>
       <use xlink:href="#DejaVuSans-2212"/>
       <use xlink:href="#DejaVuSans-33" x="83.789062"/>
       <use xlink:href="#DejaVuSans-2e" x="147.412109"/>
       <use xlink:href="#DejaVuSans-30" x="179.199219"/>
      </g>
     </g>
    </g>
    <g id="ytick_2">
     <g id="line2d_19">
      <path d="M 54 205.871305 
L 388.8 205.871305 
" clip-path="url(#p529e7d15c8)" style="fill: none; stroke: #b0b0b0; stroke-width: 0.8; stroke-linecap: square"/>
     </g>
     <g id="line2d_20">
      <g>
       <use xlink:href="#m46de8e5bca" x="54" y="205.871305" style="stroke: #000000; stroke-width: 0.8"/>
      </g>
     </g>
     <g id="text_11">
      <!-- −2.5 -->
      <g transform="translate(22.717187 209.670524)scale(0.1 -0.1)">
       <defs>
        <path id="DejaVuSans-35" d="M 691 4666 
L 3169 4666 
L 3169 4134 
L 1269 4134 
L 1269 2991 
Q 1406 3038 1543 3061 
Q 1681 3084 1819 3084 
Q 2600 3084 3056 2656 
Q 3513 2228 3513 1497 
Q 3513 744 3044 326 
Q 2575 -91 1722 -91 
Q 1428 -91 1123 -41 
Q 819 9 494 109 
L 494 744 
Q 775 591 1075 516 
Q 1375 441 1709 441 
Q 2250 441 2565 725 
Q 2881 1009 2881 1497 
Q 2881 1984 2565 2268 
Q 2250 2553 1709 2553 
Q 1456 2553 1204 2497 
Q 953 2441 691 2322 
L 691 4666 
z
" transform="scale(0.015625)"/>
       </defs>
       <use xlink:href="#DejaVuSans-2212"/>
       <use xlink:href="#DejaVuSans-32" x="83.789062"/>
       <use xlink:href="#DejaVuSans-2e" x="147.412109"/>
       <use xlink:href="#DejaVuSans-35" x="179.199219"/>
      </g>
     </g>
    </g>
    <g id="ytick_3">
     <g id="line2d_21">
      <path d="M 54 173.585771 
L 388.8 173.585771 
" clip-path="url(#p529e7d15c8)" style="fill: none; stroke: #b0b0b0; stroke-width: 0.8; stroke-linecap: square"/>
     </g>
     <g id="line2d_22">
      <g>
       <use xlink:href="#m46de8e5bca" x="54" y="173.585771" style="stroke: #000000; stroke-width: 0.8"/>
      </g>
     </g>
     <g id="text_12">
      <!-- −2.0 -->
      <g transform="translate(22.717187 177.38499)scale(0.1 -0.1)">
       <use xlink:href="#DejaVuSans-2212"/>
       <use xlink:href="#DejaVuSans-32" x="83.789062"/>
       <use xlink:href="#DejaVuSans-2e" x="147.412109"/>
       <use xlink:href="#DejaVuSans-30" x="179.199219"/>
      </g>
     </g>
    </g>
    <g id="ytick_4">
     <g id="line2d_23">
      <path d="M 54 141.300238 
L 388.8 141.300238 
" clip-path="url(#p529e7d15c8)" style="fill: none; stroke: #b0b0b0; stroke-width: 0.8; stroke-linecap: square"/>
     </g>
     <g id="line2d_24">
      <g>
       <use xlink:href="#m46de8e5bca" x="54" y="141.300238" style="stroke: #000000; stroke-width: 0.8"/>
      </g>
     </g>
     <g id="text_13">
      <!-- −1.5 -->
      <g transform="translate(22.717187 145.099456)scale(0.1 -0.1)">
       <use xlink:href="#DejaVuSans-2212"/>
       <use xlink:href="#DejaVuSans-31" x="83.789062"/>
       <use xlink:href="#DejaVuSans-2e" x="147.412109"/>
       <use xlink:href="#DejaVuSans-35" x="179.199219"/>
      </g>
     </g>
    </g>
    <g id="ytick_5">
     <g id="line2d_25">
      <path d="M 54 109.014704 
L 388.8 109.014704 
" clip-path="url(#p529e7d15c8)" style="fill: none; stroke: #b0b0b0; stroke-width: 0.8; stroke-linecap: square"/>
     </g>
     <g id="line2d_26">
      <g>
       <use xlink:href="#m46de8e5bca" x="54" y="109.014704" style="stroke: #000000; stroke-width: 0.8"/>
      </g>
     </g>
     <g id="text_14">
      <!-- −1.0 -->
      <g transform="translate(22.717187 112.813923)scale(0.1 -0.1)">
       <use xlink:href="#DejaVuSans-2212"/>
       <use xlink:href="#DejaVuSans-31" x="83.789062"/>
       <use xlink:href="#DejaVuSans-2e" x="147.412109"/>
       <use xlink:href="#DejaVuSans-30" x="179.199219"/>
      </g>
     </g>
    </g>
    <g id="ytick_6">
     <g id="line2d_27">
      <path d="M 54 76.72917 
L 388.8 76.72917 
" clip-path="url(#p529e7d15c8)" style="fill: none; stroke: #b0b0b0; stroke-width: 0.8; stroke-linecap: square"/>
     </g>
     <g id="line2d_28">
      <g>
       <use xlink:href="#m46de8e5bca" x="54" y="76.72917" style="stroke: #000000; stroke-width: 0.8"/>
      </g>
     </g>
     <g id="text_15">
      <!-- −0.5 -->
      <g transform="translate(22.717187 80.528389)scale(0.1 -0.1)">
       <use xlink:href="#DejaVuSans-2212"/>
       <use xlink:href="#DejaVuSans-30" x="83.789062"/>
       <use xlink:href="#DejaVuSans-2e" x="147.412109"/>
       <use xlink:href="#DejaVuSans-35" x="179.199219"/>
      </g>
     </g>
    </g>
    <g id="ytick_7">
     <g id="line2d_29">
      <path d="M 54 44.443636 
L 388.8 44.443636 
" clip-path="url(#p529e7d15c8)" style="fill: none; stroke: #b0b0b0; stroke-width: 0.8; stroke-linecap: square"/>
     </g>
     <g id="line2d_30">
      <g>
       <use xlink:href="#m46de8e5bca" x="54" y="44.443636" style="stroke: #000000; stroke-width: 0.8"/>
      </g>
     </g>
     <g id="text_16">
      <!-- 0.0 -->
      <g transform="translate(31.096875 48.242855)scale(0.1 -0.1)">
       <use xlink:href="#DejaVuSans-30"/>
       <use xlink:href="#DejaVuSans-2e" x="63.623047"/>
       <use xlink:href="#DejaVuSans-30" x="95.410156"/>
      </g>
     </g>
    </g>
    <g id="text_17">
     <!-- y -->
     <g transform="translate(16.6375 146.239375)rotate(-90)scale(0.1 -0.1)">
      <defs>
       <path id="DejaVuSans-79" d="M 2059 -325 
Q 1816 -950 1584 -1140 
Q 1353 -1331 966 -1331 
L 506 -1331 
L 506 -850 
L 844 -850 
Q 1081 -850 1212 -737 
Q 1344 -625 1503 -206 
L 1606 56 
L 191 3500 
L 800 3500 
L 1894 763 
L 2988 3500 
L 3597 3500 
L 2059 -325 
z
" transform="scale(0.015625)"/>
      </defs>
      <use xlink:href="#DejaVuSans-79"/>
     </g>
    </g>
   </g>
   <g id="line2d_31">
    <path d="M 162.659123 44.443636 
L 166.690784 60.539151 
L 171.301603 76.620086 
L 176.684866 92.67851 
L 183.149115 108.699519 
L 191.231098 124.65155 
L 201.987863 140.454868 
L 217.940101 155.841219 
L 247.159128 169.279071 
L 299.335926 166.945484 
L 325.004522 152.844441 
L 339.712722 137.34236 
L 349.875751 121.502256 
L 357.615062 105.534306 
L 363.857345 89.50505 
L 369.085449 73.441822 
L 373.581818 57.35785 
" clip-path="url(#p529e7d15c8)" style="fill: none; stroke: #1f77b4; stroke-width: 1.5; stroke-linecap: square"/>
    <defs>
     <path id="me9a557142a" d="M 0 3 
C 0.795609 3 1.55874 2.683901 2.12132 2.12132 
C 2.683901 1.55874 3 0.795609 3 0 
C 3 -0.795609 2.683901 -1.55874 2.12132 -2.12132 
C 1.55874 -2.683901 0.795609 -3 0 -3 
C -0.795609 -3 -1.55874 -2.683901 -2.12132 -2.12132 
C -2.683901 -1.55874 -3 -0.795609 -3 0 
C -3 0.795609 -2.683901 1.55874 -2.12132 2.12132 
C -1.55874 2.683901 -0.795609 3 0 3 
z
" style="stroke: #1f77b4"/>
    </defs>
    <g clip-path="url(#p529e7d15c8)">
     <use xlink:href="#me9a557142a" x="162.659123" y="44.443636" style="fill: #1f77b4; stroke: #1f77b4"/>
     <use xlink:href="#me9a557142a" x="166.690784" y="60.539151" style="fill: #1f77b4; stroke: #1f77b4"/>
     <use xlink:href="#me9a557142a" x="171.301603" y="76.620086" style="fill: #1f77b4; stroke: #1f77b4"/>
     <use xlink:href="#me9a557142a" x="176.684866" y="92.67851" style="fill: #1f77b4; stroke: #1f77b4"/>
     <use xlink:href="#me9a557142a" x="183.149115" y="108.699519" style="fill: #1f77b4; stroke: #1f77b4"/>
     <use xlink:href="#me9a557142a" x="191.231098" y="124.65155" style="fill: #1f77b4; stroke: #1f77b4"/>
     <use xlink:href="#me9a557142a" x="201.987863" y="140.454868" style="fill: #1f77b4; stroke: #1f77b4"/>
     <use xlink:href="#me9a557142a" x="217.940101" y="155.841219" style="fill: #1f77b4; stroke: #1f77b4"/>
     <use xlink:href="#me9a557142a" x="247.159128" y="169.279071" style="fill: #1f77b4; stroke: #1f77b4"/>
     <use xlink:href="#me9a557142a" x="299.335926" y="166.945484" style="fill: #1f77b4; stroke: #1f77b4"/>
     <use xlink:href="#me9a557142a" x="325.004522" y="152.844441" style="fill: #1f77b4; stroke: #1f77b4"/>
     <use xlink:href="#me9a557142a" x="339.712722" y="137.34236" style="fill: #1f77b4; stroke: #1f77b4"/>
     <use xlink:href="#me9a557142a" x="349.875751" y="121.502256" style="fill: #1f77b4; stroke: #1f77b4"/>
     <use xlink:href="#me9a557142a" x="357.615062" y="105.534306" style="fill: #1f77b4; stroke: #1f77b4"/>
     <use xlink:href="#me9a557142a" x="363.857345" y="89.50505" style="fill: #1f77b4; stroke: #1f77b4"/>
     <use xlink:href="#me9a557142a" x="369.085449" y="73.441822" style="fill: #1f77b4; stroke: #1f77b4"/>
     <use xlink:href="#me9a557142a" x="373.581818" y="57.35785" style="fill: #1f77b4; stroke: #1f77b4"/>
    </g>
   </g>
   <g id="line2d_32">
    <path d="M 162.659123 44.443636 
L 166.690784 60.539151 
L 171.301603 76.620086 
L 176.684866 92.67851 
L 183.149115 108.699519 
L 191.231098 124.65155 
L 201.987863 140.454868 
L 217.940102 155.841219 
L 247.159128 169.279071 
L 299.335926 166.945484 
L 325.004522 152.844441 
L 339.712722 137.34236 
L 349.875751 121.502256 
L 357.615062 105.534306 
L 363.857345 89.50505 
L 369.085449 73.441822 
L 373.581818 57.35785 
" clip-path="url(#p529e7d15c8)" style="fill: none; stroke: #ff7f0e; stroke-width: 1.5; stroke-linecap: square"/>
    <defs>
     <path id="m5ce8b52685" d="M 0 3 
C 0.795609 3 1.55874 2.683901 2.12132 2.12132 
C 2.683901 1.55874 3 0.795609 3 0 
C 3 -0.795609 2.683901 -1.55874 2.12132 -2.12132 
C 1.55874 -2.683901 0.795609 -3 0 -3 
C -0.795609 -3 -1.55874 -2.683901 -2.12132 -2.12132 
C -2.683901 -1.55874 -3 -0.795609 -3 0 
C -3 0.795609 -2.683901 1.55874 -2.12132 2.12132 
C -1.55874 2.683901 -0.795609 3 0 3 
z
" style="stroke: #ff7f0e"/>
    </defs>
    <g clip-path="url(#p529e7d15c8)">
     <use xlink:href="#m5ce8b52685" x="162.659123" y="44.443636" style="fill: #ff7f0e; stroke: #ff7f0e"/>
     <use xlink:href="#m5ce8b52685" x="166.690784" y="60.539151" style="fill: #ff7f0e; stroke: #ff7f0e"/>
     <use xlink:href="#m5ce8b52685" x="171.301603" y="76.620086" style="fill: #ff7f0e; stroke: #ff7f0e"/>
     <use xlink:href="#m5ce8b52685" x="176.684866" y="92.67851" style="fill: #ff7f0e; stroke: #ff7f0e"/>
     <use xlink:href="#m5ce8b52685" x="183.149115" y="108.699519" style="fill: #ff7f0e; stroke: #ff7f0e"/>
     <use xlink:href="#m5ce8b52685" x="191.231098" y="124.65155" style="fill: #ff7f0e; stroke: #ff7f0e"/>
     <use xlink:href="#m5ce8b52685" x="201.987863" y="140.454868" style="fill: #ff7f0e; stroke: #ff7f0e"/>
     <use xlink:href="#m5ce8b52685" x="217.940102" y="155.841219" style="fill: #ff7f0e; stroke: #ff7f0e"/>
     <use xlink:href="#m5ce8b52685" x="247.159128" y="169.279071" style="fill: #ff7f0e; stroke: #ff7f0e"/>
     <use xlink:href="#m5ce8b52685" x="299.335926" y="166.945484" style="fill: #ff7f0e; stroke: #ff7f0e"/>
     <use xlink:href="#m5ce8b52685" x="325.004522" y="152.844441" style="fill: #ff7f0e; stroke: #ff7f0e"/>
     <use xlink:href="#m5ce8b52685" x="339.712722" y="137.34236" style="fill: #ff7f0e; stroke: #ff7f0e"/>
     <use xlink:href="#m5ce8b52685" x="349.875751" y="121.502256" style="fill: #ff7f0e; stroke: #ff7f0e"/>
     <use xlink:href="#m5ce8b52685" x="357.615062" y="105.534306" style="fill: #ff7f0e; stroke: #ff7f0e"/>
     <use xlink:href="#m5ce8b52685" x="363.857345" y="89.50505" style="fill: #ff7f0e; stroke: #ff7f0e"/>
     <use xlink:href="#m5ce8b52685" x="369.085449" y="73.441822" style="fill: #ff7f0e; stroke: #ff7f0e"/>
     <use xlink:href="#m5ce8b52685" x="373.581818" y="57.35785" style="fill: #ff7f0e; stroke: #ff7f0e"/>
    </g>
   </g>
   <g id="line2d_33">
    <path d="M 162.659123 44.443636 
L 166.690784 60.539151 
L 171.301603 76.620086 
L 176.684866 92.67851 
L 183.149115 108.699519 
L 191.231098 124.65155 
L 201.987863 140.454868 
L 217.940102 155.841219 
L 247.159128 169.279071 
L 299.335926 166.945484 
L 325.004522 152.844441 
L 339.712722 137.34236 
L 349.875751 121.502256 
L 357.615062 105.534306 
L 363.857345 89.50505 
L 369.085449 73.441822 
L 373.581818 57.35785 
" clip-path="url(#p529e7d15c8)" style="fill: none; stroke: #2ca02c; stroke-width: 1.5; stroke-linecap: square"/>
    <defs>
     <path id="m421fabdd5a" d="M 0 3 
C 0.795609 3 1.55874 2.683901 2.12132 2.12132 
C 2.683901 1.55874 3 0.795609 3 0 
C 3 -0.795609 2.683901 -1.55874 2.12132 -2.12132 
C 1.55874 -2.683901 0.795609 -3 0 -3 
C -0.795609 -3 -1.55874 -2.683901 -2.12132 -2.12132 
C -2.683901 -1.55874 -3 -0.795609 -3 0 
C -3 0.795609 -2.683901 1.55874 -2.12132 2.12132 
C -1.55874 2.683901 -0.795609 3 0 3 
z
" style="stroke: #2ca02c"/>
    </defs>
    <g clip-path="url(#p529e7d15c8)">
     <use xlink:href="#m421fabdd5a" x="162.659123" y="44.443636" style="fill: #2ca02c; stroke: #2ca02c"/>
     <use xlink:href="#m421fabdd5a" x="166.690784" y="60.539151" style="fill: #2ca02c; stroke: #2ca02c"/>
     <use xlink:href="#m421fabdd5a" x="171.301603" y="76.620086" style="fill: #2ca02c; stroke: #2ca02c"/>
     <use xlink:href="#m421fabdd5a" x="176.684866" y="92.67851" style="fill: #2ca02c; stroke: #2ca02c"/>
     <use xlink:href="#m421fabdd5a" x="183.149115" y="108.699519" style="fill: #2ca02c; stroke: #2ca02c"/>
     <use xlink:href="#m421fabdd5a" x="191.231098" y="124.65155" style="fill: #2ca02c; stroke: #2ca02c"/>
     <use xlink:href="#m421fabdd5a" x="201.987863" y="140.454868" style="fill: #2ca02c; stroke: #2ca02c"/>
     <use xlink:href="#m421fabdd5a" x="217.940102" y="155.841219" style="fill: #2ca02c; stroke: #2ca02c"/>
     <use xlink:href="#m421fabdd5a" x="247.159128" y="169.279071" style="fill: #2ca02c; stroke: #2ca02c"/>
     <use xlink:href="#m421fabdd5a" x="299.335926" y="166.945484" style="fill: #2ca02c; stroke: #2ca02c"/>
     <use xlink:href="#m421fabdd5a" x="325.004522" y="152.844441" style="fill: #2ca02c; stroke: #2ca02c"/>
     <use xlink:href="#m421fabdd5a" x="339.712722" y="137.34236" style="fill: #2ca02c; stroke: #2ca02c"/>
     <use xlink:href="#m421fabdd5a" x="349.875751" y="121.502256" style="fill: #2ca02c; stroke: #2ca02c"/>
     <use xlink:href="#m421fabdd5a" x="357.615062" y="105.534306" style="fill: #2ca02c; stroke: #2ca02c"/>
     <use xlink:href="#m421fabdd5a" x="363.857345" y="89.50505" style="fill: #2ca02c; stroke: #2ca02c"/>
     <use xlink:href="#m421fabdd5a" x="369.085449" y="73.441822" style="fill: #2ca02c; stroke: #2ca02c"/>
     <use xlink:href="#m421fabdd5a" x="373.581818" y="57.35785" style="fill: #2ca02c; stroke: #2ca02c"/>
    </g>
   </g>
   <g id="line2d_34">
    <path d="M 162.659123 44.443636 
L 171.88358 84.550611 
L 182.723111 115.630194 
L 192.543184 141.250013 
L 200.258525 160.560669 
L 205.347844 174.723113 
L 204.204233 191.402277 
L 216.326297 212.086559 
L 233.586857 242.116364 
L 224.74843 215.390548 
L 278.087699 196.729452 
L 69.218182 191.726011 
L 276.135832 219.427994 
L 314.220272 192.895612 
L 344.979775 155.523228 
L 364.254652 100.320816 
L 373.581818 57.35785 
" clip-path="url(#p529e7d15c8)" style="fill: none; stroke: #d62728; stroke-width: 1.5; stroke-linecap: square"/>
    <defs>
     <path id="m928d2ba745" d="M 0 3 
C 0.795609 3 1.55874 2.683901 2.12132 2.12132 
C 2.683901 1.55874 3 0.795609 3 0 
C 3 -0.795609 2.683901 -1.55874 2.12132 -2.12132 
C 1.55874 -2.683901 0.795609 -3 0 -3 
C -0.795609 -3 -1.55874 -2.683901 -2.12132 -2.12132 
C -2.683901 -1.55874 -3 -0.795609 -3 0 
C -3 0.795609 -2.683901 1.55874 -2.12132 2.12132 
C -1.55874 2.683901 -0.795609 3 0 3 
z
" style="stroke: #d62728"/>
    </defs>
    <g clip-path="url(#p529e7d15c8)">
     <use xlink:href="#m928d2ba745" x="162.659123" y="44.443636" style="fill: #d62728; stroke: #d62728"/>
     <use xlink:href="#m928d2ba745" x="171.88358" y="84.550611" style="fill: #d62728; stroke: #d62728"/>
     <use xlink:href="#m928d2ba745" x="182.723111" y="115.630194" style="fill: #d62728; stroke: #d62728"/>
     <use xlink:href="#m928d2ba745" x="192.543184" y="141.250013" style="fill: #d62728; stroke: #d62728"/>
     <use xlink:href="#m928d2ba745" x="200.258525" y="160.560669" style="fill: #d62728; stroke: #d62728"/>
     <use xlink:href="#m928d2ba745" x="205.347844" y="174.723113" style="fill: #d62728; stroke: #d62728"/>
     <use xlink:href="#m928d2ba745" x="204.204233" y="191.402277" style="fill: #d62728; stroke: #d62728"/>
     <use xlink:href="#m928d2ba745" x="216.326297" y="212.086559" style="fill: #d62728; stroke: #d62728"/>
     <use xlink:href="#m928d2ba745" x="233.586857" y="242.116364" style="fill: #d62728; stroke: #d62728"/>
     <use xlink:href="#m928d2ba745" x="224.74843" y="215.390548" style="fill: #d62728; stroke: #d62728"/>
     <use xlink:href="#m928d2ba745" x="278.087699" y="196.729452" style="fill: #d62728; stroke: #d62728"/>
     <use xlink:href="#m928d2ba745" x="69.218182" y="191.726011" style="fill: #d62728; stroke: #d62728"/>
     <use xlink:href="#m928d2ba745" x="276.135832" y="219.427994" style="fill: #d62728; stroke: #d62728"/>
     <use xlink:href="#m928d2ba745" x="314.220272" y="192.895612" style="fill: #d62728; stroke: #d62728"/>
     <use xlink:href="#m928d2ba745" x="344.979775" y="155.523228" style="fill: #d62728; stroke: #d62728"/>
     <use xlink:href="#m928d2ba745" x="364.254652" y="100.320816" style="fill: #d62728; stroke: #d62728"/>
     <use xlink:href="#m928d2ba745" x="373.581818" y="57.35785" style="fill: #d62728; stroke: #d62728"/>
    </g>
   </g>
   <g id="line2d_35">
    <path d="M 162.659123 44.443636 
L 166.690784 60.539151 
L 171.301603 76.620086 
L 176.684866 92.67851 
L 183.149115 108.699519 
L 191.231098 124.65155 
L 201.987863 140.454868 
L 217.940102 155.841219 
L 247.159128 169.279071 
L 299.335926 166.945484 
L 325.004522 152.844441 
L 339.712722 137.34236 
L 349.875751 121.502256 
L 357.615062 105.534306 
L 363.857345 89.50505 
L 369.085449 73.441822 
L 373.581818 57.35785 
" clip-path="url(#p529e7d15c8)" style="fill: none; stroke: #9467bd; stroke-width: 1.5; stroke-linecap: square"/>
    <defs>
     <path id="m6f4472a482" d="M 0 3 
C 0.795609 3 1.55874 2.683901 2.12132 2.12132 
C 2.683901 1.55874 3 0.795609 3 0 
C 3 -0.795609 2.683901 -1.55874 2.12132 -2.12132 
C 1.55874 -2.683901 0.795609 -3 0 -3 
C -0.795609 -3 -1.55874 -2.683901 -2.12132 -2.12132 
C -2.683901 -1.55874 -3 -0.795609 -3 0 
C -3 0.795609 -2.683901 1.55874 -2.12132 2.12132 
C -1.55874 2.683901 -0.795609 3 0 3 
z
" style="stroke: #9467bd"/>
    </defs>
    <g clip-path="url(#p529e7d15c8)">
     <use xlink:href="#m6f4472a482" x="162.659123" y="44.443636" style="fill: #9467bd; stroke: #9467bd"/>
     <use xlink:href="#m6f4472a482" x="166.690784" y="60.539151" style="fill: #9467bd; stroke: #9467bd"/>
     <use xlink:href="#m6f4472a482" x="171.301603" y="76.620086" style="fill: #9467bd; stroke: #9467bd"/>
     <use xlink:href="#m6f4472a482" x="176.684866" y="92.67851" style="fill: #9467bd; stroke: #9467bd"/>
     <use xlink:href="#m6f4472a482" x="183.149115" y="108.699519" style="fill: #9467bd; stroke: #9467bd"/>
     <use xlink:href="#m6f4472a482" x="191.231098" y="124.65155" style="fill: #9467bd; stroke: #9467bd"/>
     <use xlink:href="#m6f4472a482" x="201.987863" y="140.454868" style="fill: #9467bd; stroke: #9467bd"/>
     <use xlink:href="#m6f4472a482" x="217.940102" y="155.841219" style="fill: #9467bd; stroke: #9467bd"/>
     <use xlink:href="#m6f4472a482" x="247.159128" y="169.279071" style="fill: #9467bd; stroke: #9467bd"/>
     <use xlink:href="#m6f4472a482" x="299.335926" y="166.945484" style="fill: #9467bd; stroke: #9467bd"/>
     <use xlink:href="#m6f4472a482" x="325.004522" y="152.844441" style="fill: #9467bd; stroke: #9467bd"/>
     <use xlink:href="#m6f4472a482" x="339.712722" y="137.34236" style="fill: #9467bd; stroke: #9467bd"/>
     <use xlink:href="#m6f4472a482" x="349.875751" y="121.502256" style="fill: #9467bd; stroke: #9467bd"/>
     <use xlink:href="#m6f4472a482" x="357.615062" y="105.534306" style="fill: #9467bd; stroke: #9467bd"/>
     <use xlink:href="#m6f4472a482" x="363.857345" y="89.50505" style="fill: #9467bd; stroke: #9467bd"/>
     <use xlink:href="#m6f4472a482" x="369.085449" y="73.441822" style="fill: #9467bd; stroke: #9467bd"/>
     <use xlink:href="#m6f4472a482" x="373.581818" y="57.35785" style="fill: #9467bd; stroke: #9467bd"/>
    </g>
   </g>
   <g id="patch_3">
    <path d="M 54 252 
L 54 34.56 
" style="fill: none; stroke: #000000; stroke-width: 0.8; stroke-linejoin: miter; stroke-linecap: square"/>
   </g>
   <g id="patch_4">
    <path d="M 388.8 252 
L 388.8 34.56 
" style="fill: none; stroke: #000000; stroke-width: 0.8; stroke-linejoin: miter; stroke-linecap: square"/>
   </g>
   <g id="patch_5">
    <path d="M 54 252 
L 388.8 252 
" style="fill: none; stroke: #000000; stroke-width: 0.8; stroke-linejoin: miter; stroke-linecap: square"/>
   </g>
   <g id="patch_6">
    <path d="M 54 34.56 
L 388.8 34.56 
" style="fill: none; stroke: #000000; stroke-width: 0.8; stroke-linejoin: miter; stroke-linecap: square"/>
   </g>
   <g id="legend_1">
    <g id="patch_7">
     <path d="M 61 181.475313 
L 167.4875 181.475313 
Q 169.4875 181.475313 169.4875 179.475313 
L 169.4875 107.084688 
Q 169.4875 105.084688 167.4875 105.084688 
L 61 105.084688 
Q 59 105.084688 59 107.084688 
L 59 179.475313 
Q 59 181.475313 61 181.475313 
z
" style="fill: #ffffff; opacity: 0.8; stroke: #cccccc; stroke-linejoin: miter"/>
    </g>
    <g id="line2d_36">
     <path d="M 63 113.183125 
L 73 113.183125 
L 83 113.183125 
" style="fill: none; stroke: #1f77b4; stroke-width: 1.5; stroke-linecap: square"/>
     <g>
      <use xlink:href="#me9a557142a" x="73" y="113.183125" style="fill: #1f77b4; stroke: #1f77b4"/>
     </g>
    </g>
    <g id="text_18">
     <!-- lamba = 1 -->
     <g transform="translate(91 116.683125)scale(0.1 -0.1)">
      <defs>
       <path id="DejaVuSans-6c" d="M 603 4863 
L 1178 4863 
L 1178 0 
L 603 0 
L 603 4863 
z
" transform="scale(0.015625)"/>
       <path id="DejaVuSans-61" d="M 2194 1759 
Q 1497 1759 1228 1600 
Q 959 1441 959 1056 
Q 959 750 1161 570 
Q 1363 391 1709 391 
Q 2188 391 2477 730 
Q 2766 1069 2766 1631 
L 2766 1759 
L 2194 1759 
z
M 3341 1997 
L 3341 0 
L 2766 0 
L 2766 531 
Q 2569 213 2275 61 
Q 1981 -91 1556 -91 
Q 1019 -91 701 211 
Q 384 513 384 1019 
Q 384 1609 779 1909 
Q 1175 2209 1959 2209 
L 2766 2209 
L 2766 2266 
Q 2766 2663 2505 2880 
Q 2244 3097 1772 3097 
Q 1472 3097 1187 3025 
Q 903 2953 641 2809 
L 641 3341 
Q 956 3463 1253 3523 
Q 1550 3584 1831 3584 
Q 2591 3584 2966 3190 
Q 3341 2797 3341 1997 
z
" transform="scale(0.015625)"/>
       <path id="DejaVuSans-6d" d="M 3328 2828 
Q 3544 3216 3844 3400 
Q 4144 3584 4550 3584 
Q 5097 3584 5394 3201 
Q 5691 2819 5691 2113 
L 5691 0 
L 5113 0 
L 5113 2094 
Q 5113 2597 4934 2840 
Q 4756 3084 4391 3084 
Q 3944 3084 3684 2787 
Q 3425 2491 3425 1978 
L 3425 0 
L 2847 0 
L 2847 2094 
Q 2847 2600 2669 2842 
Q 2491 3084 2119 3084 
Q 1678 3084 1418 2786 
Q 1159 2488 1159 1978 
L 1159 0 
L 581 0 
L 581 3500 
L 1159 3500 
L 1159 2956 
Q 1356 3278 1631 3431 
Q 1906 3584 2284 3584 
Q 2666 3584 2933 3390 
Q 3200 3197 3328 2828 
z
" transform="scale(0.015625)"/>
       <path id="DejaVuSans-62" d="M 3116 1747 
Q 3116 2381 2855 2742 
Q 2594 3103 2138 3103 
Q 1681 3103 1420 2742 
Q 1159 2381 1159 1747 
Q 1159 1113 1420 752 
Q 1681 391 2138 391 
Q 2594 391 2855 752 
Q 3116 1113 3116 1747 
z
M 1159 2969 
Q 1341 3281 1617 3432 
Q 1894 3584 2278 3584 
Q 2916 3584 3314 3078 
Q 3713 2572 3713 1747 
Q 3713 922 3314 415 
Q 2916 -91 2278 -91 
Q 1894 -91 1617 61 
Q 1341 213 1159 525 
L 1159 0 
L 581 0 
L 581 4863 
L 1159 4863 
L 1159 2969 
z
" transform="scale(0.015625)"/>
       <path id="DejaVuSans-20" transform="scale(0.015625)"/>
       <path id="DejaVuSans-3d" d="M 678 2906 
L 4684 2906 
L 4684 2381 
L 678 2381 
L 678 2906 
z
M 678 1631 
L 4684 1631 
L 4684 1100 
L 678 1100 
L 678 1631 
z
" transform="scale(0.015625)"/>
      </defs>
      <use xlink:href="#DejaVuSans-6c"/>
      <use xlink:href="#DejaVuSans-61" x="27.783203"/>
      <use xlink:href="#DejaVuSans-6d" x="89.0625"/>
      <use xlink:href="#DejaVuSans-62" x="186.474609"/>
      <use xlink:href="#DejaVuSans-61" x="249.951172"/>
      <use xlink:href="#DejaVuSans-20" x="311.230469"/>
      <use xlink:href="#DejaVuSans-3d" x="343.017578"/>
      <use xlink:href="#DejaVuSans-20" x="426.806641"/>
      <use xlink:href="#DejaVuSans-31" x="458.59375"/>
     </g>
    </g>
    <g id="line2d_37">
     <path d="M 63 127.86125 
L 73 127.86125 
L 83 127.86125 
" style="fill: none; stroke: #ff7f0e; stroke-width: 1.5; stroke-linecap: square"/>
     <g>
      <use xlink:href="#m5ce8b52685" x="73" y="127.86125" style="fill: #ff7f0e; stroke: #ff7f0e"/>
     </g>
    </g>
    <g id="text_19">
     <!-- lamba = 0.5 -->
     <g transform="translate(91 131.36125)scale(0.1 -0.1)">
      <use xlink:href="#DejaVuSans-6c"/>
      <use xlink:href="#DejaVuSans-61" x="27.783203"/>
      <use xlink:href="#DejaVuSans-6d" x="89.0625"/>
      <use xlink:href="#DejaVuSans-62" x="186.474609"/>
      <use xlink:href="#DejaVuSans-61" x="249.951172"/>
      <use xlink:href="#DejaVuSans-20" x="311.230469"/>
      <use xlink:href="#DejaVuSans-3d" x="343.017578"/>
      <use xlink:href="#DejaVuSans-20" x="426.806641"/>
      <use xlink:href="#DejaVuSans-30" x="458.59375"/>
      <use xlink:href="#DejaVuSans-2e" x="522.216797"/>
      <use xlink:href="#DejaVuSans-35" x="554.003906"/>
     </g>
    </g>
    <g id="line2d_38">
     <path d="M 63 142.539375 
L 73 142.539375 
L 83 142.539375 
" style="fill: none; stroke: #2ca02c; stroke-width: 1.5; stroke-linecap: square"/>
     <g>
      <use xlink:href="#m421fabdd5a" x="73" y="142.539375" style="fill: #2ca02c; stroke: #2ca02c"/>
     </g>
    </g>
    <g id="text_20">
     <!-- lamba = 0.25 -->
     <g transform="translate(91 146.039375)scale(0.1 -0.1)">
      <use xlink:href="#DejaVuSans-6c"/>
      <use xlink:href="#DejaVuSans-61" x="27.783203"/>
      <use xlink:href="#DejaVuSans-6d" x="89.0625"/>
      <use xlink:href="#DejaVuSans-62" x="186.474609"/>
      <use xlink:href="#DejaVuSans-61" x="249.951172"/>
      <use xlink:href="#DejaVuSans-20" x="311.230469"/>
      <use xlink:href="#DejaVuSans-3d" x="343.017578"/>
      <use xlink:href="#DejaVuSans-20" x="426.806641"/>
      <use xlink:href="#DejaVuSans-30" x="458.59375"/>
      <use xlink:href="#DejaVuSans-2e" x="522.216797"/>
      <use xlink:href="#DejaVuSans-32" x="554.003906"/>
      <use xlink:href="#DejaVuSans-35" x="617.626953"/>
     </g>
    </g>
    <g id="line2d_39">
     <path d="M 63 157.2175 
L 73 157.2175 
L 83 157.2175 
" style="fill: none; stroke: #d62728; stroke-width: 1.5; stroke-linecap: square"/>
     <g>
      <use xlink:href="#m928d2ba745" x="73" y="157.2175" style="fill: #d62728; stroke: #d62728"/>
     </g>
    </g>
    <g id="text_21">
     <!-- lamba = 0.125 -->
     <g transform="translate(91 160.7175)scale(0.1 -0.1)">
      <use xlink:href="#DejaVuSans-6c"/>
      <use xlink:href="#DejaVuSans-61" x="27.783203"/>
      <use xlink:href="#DejaVuSans-6d" x="89.0625"/>
      <use xlink:href="#DejaVuSans-62" x="186.474609"/>
      <use xlink:href="#DejaVuSans-61" x="249.951172"/>
      <use xlink:href="#DejaVuSans-20" x="311.230469"/>
      <use xlink:href="#DejaVuSans-3d" x="343.017578"/>
      <use xlink:href="#DejaVuSans-20" x="426.806641"/>
      <use xlink:href="#DejaVuSans-30" x="458.59375"/>
      <use xlink:href="#DejaVuSans-2e" x="522.216797"/>
      <use xlink:href="#DejaVuSans-31" x="554.003906"/>
      <use xlink:href="#DejaVuSans-32" x="617.626953"/>
      <use xlink:href="#DejaVuSans-35" x="681.25"/>
     </g>
    </g>
    <g id="line2d_40">
     <path d="M 63 171.895625 
L 73 171.895625 
L 83 171.895625 
" style="fill: none; stroke: #9467bd; stroke-width: 1.5; stroke-linecap: square"/>
     <g>
      <use xlink:href="#m6f4472a482" x="73" y="171.895625" style="fill: #9467bd; stroke: #9467bd"/>
     </g>
    </g>
    <g id="text_22">
     <!-- lamba = 0.01 -->
     <g transform="translate(91 175.395625)scale(0.1 -0.1)">
      <use xlink:href="#DejaVuSans-6c"/>
      <use xlink:href="#DejaVuSans-61" x="27.783203"/>
      <use xlink:href="#DejaVuSans-6d" x="89.0625"/>
      <use xlink:href="#DejaVuSans-62" x="186.474609"/>
      <use xlink:href="#DejaVuSans-61" x="249.951172"/>
      <use xlink:href="#DejaVuSans-20" x="311.230469"/>
      <use xlink:href="#DejaVuSans-3d" x="343.017578"/>
      <use xlink:href="#DejaVuSans-20" x="426.806641"/>
      <use xlink:href="#DejaVuSans-30" x="458.59375"/>
      <use xlink:href="#DejaVuSans-2e" x="522.216797"/>
      <use xlink:href="#DejaVuSans-30" x="554.003906"/>
      <use xlink:href="#DejaVuSans-31" x="617.626953"/>
     </g>
    </g>
   </g>
  </g>
 </g>
 <defs>
  <clipPath id="p529e7d15c8">
   <rect x="54" y="34.56" width="334.8" height="217.44"/>
  </clipPath>
 </defs>
</svg>
