<?xml version="1.0" encoding="utf-8" standalone="no"?>
<!DOCTYPE svg PUBLIC "-//W3C//DTD SVG 1.1//EN"
  "http://www.w3.org/Graphics/SVG/1.1/DTD/svg11.dtd">
<svg xmlns:xlink="http://www.w3.org/1999/xlink" width="432pt" height="288pt" viewBox="0 0 432 288" xmlns="http://www.w3.org/2000/svg" version="1.1">
 <metadata>
  <rdf:RDF xmlns:dc="http://purl.org/dc/elements/1.1/" xmlns:cc="http://creativecommons.org/ns#" xmlns:rdf="http://www.w3.org/1999/02/22-rdf-syntax-ns#">
   <cc:Work>
    <dc:type rdf:resource="http://purl.org/dc/dcmitype/StillImage"/>
    <dc:date>2023-02-19T11:06:27.667753</dc:date>
    <dc:format>image/svg+xml</dc:format>
    <dc:creator>
     <cc:Agent>
      <dc:title>Matplotlib v3.5.1, https://matplotlib.org/</dc:title>
     </cc:Agent>
    </dc:creator>
   </cc:Work>
  </rdf:RDF>
 </metadata>
 <defs>
  <style type="text/css">*{stroke-linejoin: round; stroke-linecap: butt}</style>
 </defs>
 <g id="figure_1">
  <g id="patch_1">
   <path d="M 0 288 
L 432 288 
L 432 0 
L 0 0 
L 0 288 
z
" style="fill: none"/>
  </g>
  <g id="axes_1">
   <g id="patch_2">
    <path d="M 54 252 
L 388.8 252 
L 388.8 34.56 
L 54 34.56 
z
" style="fill: #ffffff"/>
   </g>
   <g id="matplotlib.axis_1">
    <g id="xtick_1">
     <g id="line2d_1">
      <path d="M 69.218182 252 
L 69.218182 34.56 
" clip-path="url(#p2d50ab9c2d)" style="fill: none; stroke: #b0b0b0; stroke-width: 0.8; stroke-linecap: square"/>
     </g>
     <g id="line2d_2">
      <defs>
       <path id="m65860ece36" d="M 0 0 
L 0 3.5 
" style="stroke: #000000; stroke-width: 0.8"/>
      </defs>
      <g>
       <use xlink:href="#m65860ece36" x="69.218182" y="252" style="stroke: #000000; stroke-width: 0.8"/>
      </g>
     </g>
     <g id="text_1">
      <!-- $\mathdefault{10^{0}}$ -->
      <g transform="translate(60.418182 266.598437)scale(0.1 -0.1)">
       <defs>
        <path id="DejaVuSans-31" d="M 794 531 
L 1825 531 
L 1825 4091 
L 703 3866 
L 703 4441 
L 1819 4666 
L 2450 4666 
L 2450 531 
L 3481 531 
L 3481 0 
L 794 0 
L 794 531 
z
" transform="scale(0.015625)"/>
        <path id="DejaVuSans-30" d="M 2034 4250 
Q 1547 4250 1301 3770 
Q 1056 3291 1056 2328 
Q 1056 1369 1301 889 
Q 1547 409 2034 409 
Q 2525 409 2770 889 
Q 3016 1369 3016 2328 
Q 3016 3291 2770 3770 
Q 2525 4250 2034 4250 
z
M 2034 4750 
Q 2819 4750 3233 4129 
Q 3647 3509 3647 2328 
Q 3647 1150 3233 529 
Q 2819 -91 2034 -91 
Q 1250 -91 836 529 
Q 422 1150 422 2328 
Q 422 3509 836 4129 
Q 1250 4750 2034 4750 
z
" transform="scale(0.015625)"/>
       </defs>
       <use xlink:href="#DejaVuSans-31" transform="translate(0 0.765625)"/>
       <use xlink:href="#DejaVuSans-30" transform="translate(63.623047 0.765625)"/>
       <use xlink:href="#DejaVuSans-30" transform="translate(128.203125 39.046875)scale(0.7)"/>
      </g>
     </g>
    </g>
    <g id="xtick_2">
     <g id="line2d_3">
      <path d="M 221.732848 252 
L 221.732848 34.56 
" clip-path="url(#p2d50ab9c2d)" style="fill: none; stroke: #b0b0b0; stroke-width: 0.8; stroke-linecap: square"/>
     </g>
     <g id="line2d_4">
      <g>
       <use xlink:href="#m65860ece36" x="221.732848" y="252" style="stroke: #000000; stroke-width: 0.8"/>
      </g>
     </g>
     <g id="text_2">
      <!-- $\mathdefault{10^{1}}$ -->
      <g transform="translate(212.932848 266.598437)scale(0.1 -0.1)">
       <use xlink:href="#DejaVuSans-31" transform="translate(0 0.684375)"/>
       <use xlink:href="#DejaVuSans-30" transform="translate(63.623047 0.684375)"/>
       <use xlink:href="#DejaVuSans-31" transform="translate(128.203125 38.965625)scale(0.7)"/>
      </g>
     </g>
    </g>
    <g id="xtick_3">
     <g id="line2d_5">
      <path d="M 374.247515 252 
L 374.247515 34.56 
" clip-path="url(#p2d50ab9c2d)" style="fill: none; stroke: #b0b0b0; stroke-width: 0.8; stroke-linecap: square"/>
     </g>
     <g id="line2d_6">
      <g>
       <use xlink:href="#m65860ece36" x="374.247515" y="252" style="stroke: #000000; stroke-width: 0.8"/>
      </g>
     </g>
     <g id="text_3">
      <!-- $\mathdefault{10^{2}}$ -->
      <g transform="translate(365.447515 266.598437)scale(0.1 -0.1)">
       <defs>
        <path id="DejaVuSans-32" d="M 1228 531 
L 3431 531 
L 3431 0 
L 469 0 
L 469 531 
Q 828 903 1448 1529 
Q 2069 2156 2228 2338 
Q 2531 2678 2651 2914 
Q 2772 3150 2772 3378 
Q 2772 3750 2511 3984 
Q 2250 4219 1831 4219 
Q 1534 4219 1204 4116 
Q 875 4013 500 3803 
L 500 4441 
Q 881 4594 1212 4672 
Q 1544 4750 1819 4750 
Q 2544 4750 2975 4387 
Q 3406 4025 3406 3419 
Q 3406 3131 3298 2873 
Q 3191 2616 2906 2266 
Q 2828 2175 2409 1742 
Q 1991 1309 1228 531 
z
" transform="scale(0.015625)"/>
       </defs>
       <use xlink:href="#DejaVuSans-31" transform="translate(0 0.765625)"/>
       <use xlink:href="#DejaVuSans-30" transform="translate(63.623047 0.765625)"/>
       <use xlink:href="#DejaVuSans-32" transform="translate(128.203125 39.046875)scale(0.7)"/>
      </g>
     </g>
    </g>
    <g id="xtick_4">
     <g id="line2d_7">
      <defs>
       <path id="m594fe00074" d="M 0 0 
L 0 2 
" style="stroke: #000000; stroke-width: 0.6"/>
      </defs>
      <g>
       <use xlink:href="#m594fe00074" x="54.437983" y="252" style="stroke: #000000; stroke-width: 0.6"/>
      </g>
     </g>
    </g>
    <g id="xtick_5">
     <g id="line2d_8">
      <g>
       <use xlink:href="#m594fe00074" x="62.239493" y="252" style="stroke: #000000; stroke-width: 0.6"/>
      </g>
     </g>
    </g>
    <g id="xtick_6">
     <g id="line2d_9">
      <g>
       <use xlink:href="#m594fe00074" x="115.129671" y="252" style="stroke: #000000; stroke-width: 0.6"/>
      </g>
     </g>
    </g>
    <g id="xtick_7">
     <g id="line2d_10">
      <g>
       <use xlink:href="#m594fe00074" x="141.986171" y="252" style="stroke: #000000; stroke-width: 0.6"/>
      </g>
     </g>
    </g>
    <g id="xtick_8">
     <g id="line2d_11">
      <g>
       <use xlink:href="#m594fe00074" x="161.041161" y="252" style="stroke: #000000; stroke-width: 0.6"/>
      </g>
     </g>
    </g>
    <g id="xtick_9">
     <g id="line2d_12">
      <g>
       <use xlink:href="#m594fe00074" x="175.821359" y="252" style="stroke: #000000; stroke-width: 0.6"/>
      </g>
     </g>
    </g>
    <g id="xtick_10">
     <g id="line2d_13">
      <g>
       <use xlink:href="#m594fe00074" x="187.89766" y="252" style="stroke: #000000; stroke-width: 0.6"/>
      </g>
     </g>
    </g>
    <g id="xtick_11">
     <g id="line2d_14">
      <g>
       <use xlink:href="#m594fe00074" x="198.108028" y="252" style="stroke: #000000; stroke-width: 0.6"/>
      </g>
     </g>
    </g>
    <g id="xtick_12">
     <g id="line2d_15">
      <g>
       <use xlink:href="#m594fe00074" x="206.95265" y="252" style="stroke: #000000; stroke-width: 0.6"/>
      </g>
     </g>
    </g>
    <g id="xtick_13">
     <g id="line2d_16">
      <g>
       <use xlink:href="#m594fe00074" x="214.75416" y="252" style="stroke: #000000; stroke-width: 0.6"/>
      </g>
     </g>
    </g>
    <g id="xtick_14">
     <g id="line2d_17">
      <g>
       <use xlink:href="#m594fe00074" x="267.644338" y="252" style="stroke: #000000; stroke-width: 0.6"/>
      </g>
     </g>
    </g>
    <g id="xtick_15">
     <g id="line2d_18">
      <g>
       <use xlink:href="#m594fe00074" x="294.500838" y="252" style="stroke: #000000; stroke-width: 0.6"/>
      </g>
     </g>
    </g>
    <g id="xtick_16">
     <g id="line2d_19">
      <g>
       <use xlink:href="#m594fe00074" x="313.555827" y="252" style="stroke: #000000; stroke-width: 0.6"/>
      </g>
     </g>
    </g>
    <g id="xtick_17">
     <g id="line2d_20">
      <g>
       <use xlink:href="#m594fe00074" x="328.336026" y="252" style="stroke: #000000; stroke-width: 0.6"/>
      </g>
     </g>
    </g>
    <g id="xtick_18">
     <g id="line2d_21">
      <g>
       <use xlink:href="#m594fe00074" x="340.412327" y="252" style="stroke: #000000; stroke-width: 0.6"/>
      </g>
     </g>
    </g>
    <g id="xtick_19">
     <g id="line2d_22">
      <g>
       <use xlink:href="#m594fe00074" x="350.622694" y="252" style="stroke: #000000; stroke-width: 0.6"/>
      </g>
     </g>
    </g>
    <g id="xtick_20">
     <g id="line2d_23">
      <g>
       <use xlink:href="#m594fe00074" x="359.467317" y="252" style="stroke: #000000; stroke-width: 0.6"/>
      </g>
     </g>
    </g>
    <g id="xtick_21">
     <g id="line2d_24">
      <g>
       <use xlink:href="#m594fe00074" x="367.268827" y="252" style="stroke: #000000; stroke-width: 0.6"/>
      </g>
     </g>
    </g>
    <g id="text_4">
     <!-- Iteration count -->
     <g transform="translate(184.496094 280.276563)scale(0.1 -0.1)">
      <defs>
       <path id="DejaVuSans-49" d="M 628 4666 
L 1259 4666 
L 1259 0 
L 628 0 
L 628 4666 
z
" transform="scale(0.015625)"/>
       <path id="DejaVuSans-74" d="M 1172 4494 
L 1172 3500 
L 2356 3500 
L 2356 3053 
L 1172 3053 
L 1172 1153 
Q 1172 725 1289 603 
Q 1406 481 1766 481 
L 2356 481 
L 2356 0 
L 1766 0 
Q 1100 0 847 248 
Q 594 497 594 1153 
L 594 3053 
L 172 3053 
L 172 3500 
L 594 3500 
L 594 4494 
L 1172 4494 
z
" transform="scale(0.015625)"/>
       <path id="DejaVuSans-65" d="M 3597 1894 
L 3597 1613 
L 953 1613 
Q 991 1019 1311 708 
Q 1631 397 2203 397 
Q 2534 397 2845 478 
Q 3156 559 3463 722 
L 3463 178 
Q 3153 47 2828 -22 
Q 2503 -91 2169 -91 
Q 1331 -91 842 396 
Q 353 884 353 1716 
Q 353 2575 817 3079 
Q 1281 3584 2069 3584 
Q 2775 3584 3186 3129 
Q 3597 2675 3597 1894 
z
M 3022 2063 
Q 3016 2534 2758 2815 
Q 2500 3097 2075 3097 
Q 1594 3097 1305 2825 
Q 1016 2553 972 2059 
L 3022 2063 
z
" transform="scale(0.015625)"/>
       <path id="DejaVuSans-72" d="M 2631 2963 
Q 2534 3019 2420 3045 
Q 2306 3072 2169 3072 
Q 1681 3072 1420 2755 
Q 1159 2438 1159 1844 
L 1159 0 
L 581 0 
L 581 3500 
L 1159 3500 
L 1159 2956 
Q 1341 3275 1631 3429 
Q 1922 3584 2338 3584 
Q 2397 3584 2469 3576 
Q 2541 3569 2628 3553 
L 2631 2963 
z
" transform="scale(0.015625)"/>
       <path id="DejaVuSans-61" d="M 2194 1759 
Q 1497 1759 1228 1600 
Q 959 1441 959 1056 
Q 959 750 1161 570 
Q 1363 391 1709 391 
Q 2188 391 2477 730 
Q 2766 1069 2766 1631 
L 2766 1759 
L 2194 1759 
z
M 3341 1997 
L 3341 0 
L 2766 0 
L 2766 531 
Q 2569 213 2275 61 
Q 1981 -91 1556 -91 
Q 1019 -91 701 211 
Q 384 513 384 1019 
Q 384 1609 779 1909 
Q 1175 2209 1959 2209 
L 2766 2209 
L 2766 2266 
Q 2766 2663 2505 2880 
Q 2244 3097 1772 3097 
Q 1472 3097 1187 3025 
Q 903 2953 641 2809 
L 641 3341 
Q 956 3463 1253 3523 
Q 1550 3584 1831 3584 
Q 2591 3584 2966 3190 
Q 3341 2797 3341 1997 
z
" transform="scale(0.015625)"/>
       <path id="DejaVuSans-69" d="M 603 3500 
L 1178 3500 
L 1178 0 
L 603 0 
L 603 3500 
z
M 603 4863 
L 1178 4863 
L 1178 4134 
L 603 4134 
L 603 4863 
z
" transform="scale(0.015625)"/>
       <path id="DejaVuSans-6f" d="M 1959 3097 
Q 1497 3097 1228 2736 
Q 959 2375 959 1747 
Q 959 1119 1226 758 
Q 1494 397 1959 397 
Q 2419 397 2687 759 
Q 2956 1122 2956 1747 
Q 2956 2369 2687 2733 
Q 2419 3097 1959 3097 
z
M 1959 3584 
Q 2709 3584 3137 3096 
Q 3566 2609 3566 1747 
Q 3566 888 3137 398 
Q 2709 -91 1959 -91 
Q 1206 -91 779 398 
Q 353 888 353 1747 
Q 353 2609 779 3096 
Q 1206 3584 1959 3584 
z
" transform="scale(0.015625)"/>
       <path id="DejaVuSans-6e" d="M 3513 2113 
L 3513 0 
L 2938 0 
L 2938 2094 
Q 2938 2591 2744 2837 
Q 2550 3084 2163 3084 
Q 1697 3084 1428 2787 
Q 1159 2491 1159 1978 
L 1159 0 
L 581 0 
L 581 3500 
L 1159 3500 
L 1159 2956 
Q 1366 3272 1645 3428 
Q 1925 3584 2291 3584 
Q 2894 3584 3203 3211 
Q 3513 2838 3513 2113 
z
" transform="scale(0.015625)"/>
       <path id="DejaVuSans-20" transform="scale(0.015625)"/>
       <path id="DejaVuSans-63" d="M 3122 3366 
L 3122 2828 
Q 2878 2963 2633 3030 
Q 2388 3097 2138 3097 
Q 1578 3097 1268 2742 
Q 959 2388 959 1747 
Q 959 1106 1268 751 
Q 1578 397 2138 397 
Q 2388 397 2633 464 
Q 2878 531 3122 666 
L 3122 134 
Q 2881 22 2623 -34 
Q 2366 -91 2075 -91 
Q 1284 -91 818 406 
Q 353 903 353 1747 
Q 353 2603 823 3093 
Q 1294 3584 2113 3584 
Q 2378 3584 2631 3529 
Q 2884 3475 3122 3366 
z
" transform="scale(0.015625)"/>
       <path id="DejaVuSans-75" d="M 544 1381 
L 544 3500 
L 1119 3500 
L 1119 1403 
Q 1119 906 1312 657 
Q 1506 409 1894 409 
Q 2359 409 2629 706 
Q 2900 1003 2900 1516 
L 2900 3500 
L 3475 3500 
L 3475 0 
L 2900 0 
L 2900 538 
Q 2691 219 2414 64 
Q 2138 -91 1772 -91 
Q 1169 -91 856 284 
Q 544 659 544 1381 
z
M 1991 3584 
L 1991 3584 
z
" transform="scale(0.015625)"/>
      </defs>
      <use xlink:href="#DejaVuSans-49"/>
      <use xlink:href="#DejaVuSans-74" x="29.492188"/>
      <use xlink:href="#DejaVuSans-65" x="68.701172"/>
      <use xlink:href="#DejaVuSans-72" x="130.224609"/>
      <use xlink:href="#DejaVuSans-61" x="171.337891"/>
      <use xlink:href="#DejaVuSans-74" x="232.617188"/>
      <use xlink:href="#DejaVuSans-69" x="271.826172"/>
      <use xlink:href="#DejaVuSans-6f" x="299.609375"/>
      <use xlink:href="#DejaVuSans-6e" x="360.791016"/>
      <use xlink:href="#DejaVuSans-20" x="424.169922"/>
      <use xlink:href="#DejaVuSans-63" x="455.957031"/>
      <use xlink:href="#DejaVuSans-6f" x="510.9375"/>
      <use xlink:href="#DejaVuSans-75" x="572.119141"/>
      <use xlink:href="#DejaVuSans-6e" x="635.498047"/>
      <use xlink:href="#DejaVuSans-74" x="698.876953"/>
     </g>
    </g>
   </g>
   <g id="matplotlib.axis_2">
    <g id="ytick_1">
     <g id="line2d_25">
      <path d="M 54 228.134286 
L 388.8 228.134286 
" clip-path="url(#p2d50ab9c2d)" style="fill: none; stroke: #b0b0b0; stroke-width: 0.8; stroke-linecap: square"/>
     </g>
     <g id="line2d_26">
      <defs>
       <path id="m4ad34211da" d="M 0 0 
L -3.5 0 
" style="stroke: #000000; stroke-width: 0.8"/>
      </defs>
      <g>
       <use xlink:href="#m4ad34211da" x="54" y="228.134286" style="stroke: #000000; stroke-width: 0.8"/>
      </g>
     </g>
     <g id="text_5">
      <!-- $\mathdefault{10^{2}}$ -->
      <g transform="translate(29.4 231.933505)scale(0.1 -0.1)">
       <use xlink:href="#DejaVuSans-31" transform="translate(0 0.765625)"/>
       <use xlink:href="#DejaVuSans-30" transform="translate(63.623047 0.765625)"/>
       <use xlink:href="#DejaVuSans-32" transform="translate(128.203125 39.046875)scale(0.7)"/>
      </g>
     </g>
    </g>
    <g id="ytick_2">
     <g id="line2d_27">
      <path d="M 54 202.794943 
L 388.8 202.794943 
" clip-path="url(#p2d50ab9c2d)" style="fill: none; stroke: #b0b0b0; stroke-width: 0.8; stroke-linecap: square"/>
     </g>
     <g id="line2d_28">
      <g>
       <use xlink:href="#m4ad34211da" x="54" y="202.794943" style="stroke: #000000; stroke-width: 0.8"/>
      </g>
     </g>
     <g id="text_6">
      <!-- $\mathdefault{10^{6}}$ -->
      <g transform="translate(29.4 206.594161)scale(0.1 -0.1)">
       <defs>
        <path id="DejaVuSans-36" d="M 2113 2584 
Q 1688 2584 1439 2293 
Q 1191 2003 1191 1497 
Q 1191 994 1439 701 
Q 1688 409 2113 409 
Q 2538 409 2786 701 
Q 3034 994 3034 1497 
Q 3034 2003 2786 2293 
Q 2538 2584 2113 2584 
z
M 3366 4563 
L 3366 3988 
Q 3128 4100 2886 4159 
Q 2644 4219 2406 4219 
Q 1781 4219 1451 3797 
Q 1122 3375 1075 2522 
Q 1259 2794 1537 2939 
Q 1816 3084 2150 3084 
Q 2853 3084 3261 2657 
Q 3669 2231 3669 1497 
Q 3669 778 3244 343 
Q 2819 -91 2113 -91 
Q 1303 -91 875 529 
Q 447 1150 447 2328 
Q 447 3434 972 4092 
Q 1497 4750 2381 4750 
Q 2619 4750 2861 4703 
Q 3103 4656 3366 4563 
z
" transform="scale(0.015625)"/>
       </defs>
       <use xlink:href="#DejaVuSans-31" transform="translate(0 0.765625)"/>
       <use xlink:href="#DejaVuSans-30" transform="translate(63.623047 0.765625)"/>
       <use xlink:href="#DejaVuSans-36" transform="translate(128.203125 39.046875)scale(0.7)"/>
      </g>
     </g>
    </g>
    <g id="ytick_3">
     <g id="line2d_29">
      <path d="M 54 177.455599 
L 388.8 177.455599 
" clip-path="url(#p2d50ab9c2d)" style="fill: none; stroke: #b0b0b0; stroke-width: 0.8; stroke-linecap: square"/>
     </g>
     <g id="line2d_30">
      <g>
       <use xlink:href="#m4ad34211da" x="54" y="177.455599" style="stroke: #000000; stroke-width: 0.8"/>
      </g>
     </g>
     <g id="text_7">
      <!-- $\mathdefault{10^{10}}$ -->
      <g transform="translate(24.9 181.254818)scale(0.1 -0.1)">
       <use xlink:href="#DejaVuSans-31" transform="translate(0 0.765625)"/>
       <use xlink:href="#DejaVuSans-30" transform="translate(63.623047 0.765625)"/>
       <use xlink:href="#DejaVuSans-31" transform="translate(128.203125 39.046875)scale(0.7)"/>
       <use xlink:href="#DejaVuSans-30" transform="translate(172.739258 39.046875)scale(0.7)"/>
      </g>
     </g>
    </g>
    <g id="ytick_4">
     <g id="line2d_31">
      <path d="M 54 152.116256 
L 388.8 152.116256 
" clip-path="url(#p2d50ab9c2d)" style="fill: none; stroke: #b0b0b0; stroke-width: 0.8; stroke-linecap: square"/>
     </g>
     <g id="line2d_32">
      <g>
       <use xlink:href="#m4ad34211da" x="54" y="152.116256" style="stroke: #000000; stroke-width: 0.8"/>
      </g>
     </g>
     <g id="text_8">
      <!-- $\mathdefault{10^{14}}$ -->
      <g transform="translate(24.9 155.915474)scale(0.1 -0.1)">
       <defs>
        <path id="DejaVuSans-34" d="M 2419 4116 
L 825 1625 
L 2419 1625 
L 2419 4116 
z
M 2253 4666 
L 3047 4666 
L 3047 1625 
L 3713 1625 
L 3713 1100 
L 3047 1100 
L 3047 0 
L 2419 0 
L 2419 1100 
L 313 1100 
L 313 1709 
L 2253 4666 
z
" transform="scale(0.015625)"/>
       </defs>
       <use xlink:href="#DejaVuSans-31" transform="translate(0 0.684375)"/>
       <use xlink:href="#DejaVuSans-30" transform="translate(63.623047 0.684375)"/>
       <use xlink:href="#DejaVuSans-31" transform="translate(128.203125 38.965625)scale(0.7)"/>
       <use xlink:href="#DejaVuSans-34" transform="translate(172.739258 38.965625)scale(0.7)"/>
      </g>
     </g>
    </g>
    <g id="ytick_5">
     <g id="line2d_33">
      <path d="M 54 126.776912 
L 388.8 126.776912 
" clip-path="url(#p2d50ab9c2d)" style="fill: none; stroke: #b0b0b0; stroke-width: 0.8; stroke-linecap: square"/>
     </g>
     <g id="line2d_34">
      <g>
       <use xlink:href="#m4ad34211da" x="54" y="126.776912" style="stroke: #000000; stroke-width: 0.8"/>
      </g>
     </g>
     <g id="text_9">
      <!-- $\mathdefault{10^{18}}$ -->
      <g transform="translate(24.9 130.576131)scale(0.1 -0.1)">
       <defs>
        <path id="DejaVuSans-38" d="M 2034 2216 
Q 1584 2216 1326 1975 
Q 1069 1734 1069 1313 
Q 1069 891 1326 650 
Q 1584 409 2034 409 
Q 2484 409 2743 651 
Q 3003 894 3003 1313 
Q 3003 1734 2745 1975 
Q 2488 2216 2034 2216 
z
M 1403 2484 
Q 997 2584 770 2862 
Q 544 3141 544 3541 
Q 544 4100 942 4425 
Q 1341 4750 2034 4750 
Q 2731 4750 3128 4425 
Q 3525 4100 3525 3541 
Q 3525 3141 3298 2862 
Q 3072 2584 2669 2484 
Q 3125 2378 3379 2068 
Q 3634 1759 3634 1313 
Q 3634 634 3220 271 
Q 2806 -91 2034 -91 
Q 1263 -91 848 271 
Q 434 634 434 1313 
Q 434 1759 690 2068 
Q 947 2378 1403 2484 
z
M 1172 3481 
Q 1172 3119 1398 2916 
Q 1625 2713 2034 2713 
Q 2441 2713 2670 2916 
Q 2900 3119 2900 3481 
Q 2900 3844 2670 4047 
Q 2441 4250 2034 4250 
Q 1625 4250 1398 4047 
Q 1172 3844 1172 3481 
z
" transform="scale(0.015625)"/>
       </defs>
       <use xlink:href="#DejaVuSans-31" transform="translate(0 0.765625)"/>
       <use xlink:href="#DejaVuSans-30" transform="translate(63.623047 0.765625)"/>
       <use xlink:href="#DejaVuSans-31" transform="translate(128.203125 39.046875)scale(0.7)"/>
       <use xlink:href="#DejaVuSans-38" transform="translate(172.739258 39.046875)scale(0.7)"/>
      </g>
     </g>
    </g>
    <g id="ytick_6">
     <g id="line2d_35">
      <path d="M 54 101.437569 
L 388.8 101.437569 
" clip-path="url(#p2d50ab9c2d)" style="fill: none; stroke: #b0b0b0; stroke-width: 0.8; stroke-linecap: square"/>
     </g>
     <g id="line2d_36">
      <g>
       <use xlink:href="#m4ad34211da" x="54" y="101.437569" style="stroke: #000000; stroke-width: 0.8"/>
      </g>
     </g>
     <g id="text_10">
      <!-- $\mathdefault{10^{22}}$ -->
      <g transform="translate(24.9 105.236787)scale(0.1 -0.1)">
       <use xlink:href="#DejaVuSans-31" transform="translate(0 0.765625)"/>
       <use xlink:href="#DejaVuSans-30" transform="translate(63.623047 0.765625)"/>
       <use xlink:href="#DejaVuSans-32" transform="translate(128.203125 39.046875)scale(0.7)"/>
       <use xlink:href="#DejaVuSans-32" transform="translate(172.739258 39.046875)scale(0.7)"/>
      </g>
     </g>
    </g>
    <g id="ytick_7">
     <g id="line2d_37">
      <path d="M 54 76.098225 
L 388.8 76.098225 
" clip-path="url(#p2d50ab9c2d)" style="fill: none; stroke: #b0b0b0; stroke-width: 0.8; stroke-linecap: square"/>
     </g>
     <g id="line2d_38">
      <g>
       <use xlink:href="#m4ad34211da" x="54" y="76.098225" style="stroke: #000000; stroke-width: 0.8"/>
      </g>
     </g>
     <g id="text_11">
      <!-- $\mathdefault{10^{26}}$ -->
      <g transform="translate(24.9 79.897444)scale(0.1 -0.1)">
       <use xlink:href="#DejaVuSans-31" transform="translate(0 0.765625)"/>
       <use xlink:href="#DejaVuSans-30" transform="translate(63.623047 0.765625)"/>
       <use xlink:href="#DejaVuSans-32" transform="translate(128.203125 39.046875)scale(0.7)"/>
       <use xlink:href="#DejaVuSans-36" transform="translate(172.739258 39.046875)scale(0.7)"/>
      </g>
     </g>
    </g>
    <g id="ytick_8">
     <g id="line2d_39">
      <path d="M 54 50.758882 
L 388.8 50.758882 
" clip-path="url(#p2d50ab9c2d)" style="fill: none; stroke: #b0b0b0; stroke-width: 0.8; stroke-linecap: square"/>
     </g>
     <g id="line2d_40">
      <g>
       <use xlink:href="#m4ad34211da" x="54" y="50.758882" style="stroke: #000000; stroke-width: 0.8"/>
      </g>
     </g>
     <g id="text_12">
      <!-- $\mathdefault{10^{30}}$ -->
      <g transform="translate(24.9 54.5581)scale(0.1 -0.1)">
       <defs>
        <path id="DejaVuSans-33" d="M 2597 2516 
Q 3050 2419 3304 2112 
Q 3559 1806 3559 1356 
Q 3559 666 3084 287 
Q 2609 -91 1734 -91 
Q 1441 -91 1130 -33 
Q 819 25 488 141 
L 488 750 
Q 750 597 1062 519 
Q 1375 441 1716 441 
Q 2309 441 2620 675 
Q 2931 909 2931 1356 
Q 2931 1769 2642 2001 
Q 2353 2234 1838 2234 
L 1294 2234 
L 1294 2753 
L 1863 2753 
Q 2328 2753 2575 2939 
Q 2822 3125 2822 3475 
Q 2822 3834 2567 4026 
Q 2313 4219 1838 4219 
Q 1578 4219 1281 4162 
Q 984 4106 628 3988 
L 628 4550 
Q 988 4650 1302 4700 
Q 1616 4750 1894 4750 
Q 2613 4750 3031 4423 
Q 3450 4097 3450 3541 
Q 3450 3153 3228 2886 
Q 3006 2619 2597 2516 
z
" transform="scale(0.015625)"/>
       </defs>
       <use xlink:href="#DejaVuSans-31" transform="translate(0 0.765625)"/>
       <use xlink:href="#DejaVuSans-30" transform="translate(63.623047 0.765625)"/>
       <use xlink:href="#DejaVuSans-33" transform="translate(128.203125 39.046875)scale(0.7)"/>
       <use xlink:href="#DejaVuSans-30" transform="translate(172.739258 39.046875)scale(0.7)"/>
      </g>
     </g>
    </g>
    <g id="text_13">
     <!-- Optimality gap (norm residual) -->
     <g transform="translate(18.820312 220.328438)rotate(-90)scale(0.1 -0.1)">
      <defs>
       <path id="DejaVuSans-4f" d="M 2522 4238 
Q 1834 4238 1429 3725 
Q 1025 3213 1025 2328 
Q 1025 1447 1429 934 
Q 1834 422 2522 422 
Q 3209 422 3611 934 
Q 4013 1447 4013 2328 
Q 4013 3213 3611 3725 
Q 3209 4238 2522 4238 
z
M 2522 4750 
Q 3503 4750 4090 4092 
Q 4678 3434 4678 2328 
Q 4678 1225 4090 567 
Q 3503 -91 2522 -91 
Q 1538 -91 948 565 
Q 359 1222 359 2328 
Q 359 3434 948 4092 
Q 1538 4750 2522 4750 
z
" transform="scale(0.015625)"/>
       <path id="DejaVuSans-70" d="M 1159 525 
L 1159 -1331 
L 581 -1331 
L 581 3500 
L 1159 3500 
L 1159 2969 
Q 1341 3281 1617 3432 
Q 1894 3584 2278 3584 
Q 2916 3584 3314 3078 
Q 3713 2572 3713 1747 
Q 3713 922 3314 415 
Q 2916 -91 2278 -91 
Q 1894 -91 1617 61 
Q 1341 213 1159 525 
z
M 3116 1747 
Q 3116 2381 2855 2742 
Q 2594 3103 2138 3103 
Q 1681 3103 1420 2742 
Q 1159 2381 1159 1747 
Q 1159 1113 1420 752 
Q 1681 391 2138 391 
Q 2594 391 2855 752 
Q 3116 1113 3116 1747 
z
" transform="scale(0.015625)"/>
       <path id="DejaVuSans-6d" d="M 3328 2828 
Q 3544 3216 3844 3400 
Q 4144 3584 4550 3584 
Q 5097 3584 5394 3201 
Q 5691 2819 5691 2113 
L 5691 0 
L 5113 0 
L 5113 2094 
Q 5113 2597 4934 2840 
Q 4756 3084 4391 3084 
Q 3944 3084 3684 2787 
Q 3425 2491 3425 1978 
L 3425 0 
L 2847 0 
L 2847 2094 
Q 2847 2600 2669 2842 
Q 2491 3084 2119 3084 
Q 1678 3084 1418 2786 
Q 1159 2488 1159 1978 
L 1159 0 
L 581 0 
L 581 3500 
L 1159 3500 
L 1159 2956 
Q 1356 3278 1631 3431 
Q 1906 3584 2284 3584 
Q 2666 3584 2933 3390 
Q 3200 3197 3328 2828 
z
" transform="scale(0.015625)"/>
       <path id="DejaVuSans-6c" d="M 603 4863 
L 1178 4863 
L 1178 0 
L 603 0 
L 603 4863 
z
" transform="scale(0.015625)"/>
       <path id="DejaVuSans-79" d="M 2059 -325 
Q 1816 -950 1584 -1140 
Q 1353 -1331 966 -1331 
L 506 -1331 
L 506 -850 
L 844 -850 
Q 1081 -850 1212 -737 
Q 1344 -625 1503 -206 
L 1606 56 
L 191 3500 
L 800 3500 
L 1894 763 
L 2988 3500 
L 3597 3500 
L 2059 -325 
z
" transform="scale(0.015625)"/>
       <path id="DejaVuSans-67" d="M 2906 1791 
Q 2906 2416 2648 2759 
Q 2391 3103 1925 3103 
Q 1463 3103 1205 2759 
Q 947 2416 947 1791 
Q 947 1169 1205 825 
Q 1463 481 1925 481 
Q 2391 481 2648 825 
Q 2906 1169 2906 1791 
z
M 3481 434 
Q 3481 -459 3084 -895 
Q 2688 -1331 1869 -1331 
Q 1566 -1331 1297 -1286 
Q 1028 -1241 775 -1147 
L 775 -588 
Q 1028 -725 1275 -790 
Q 1522 -856 1778 -856 
Q 2344 -856 2625 -561 
Q 2906 -266 2906 331 
L 2906 616 
Q 2728 306 2450 153 
Q 2172 0 1784 0 
Q 1141 0 747 490 
Q 353 981 353 1791 
Q 353 2603 747 3093 
Q 1141 3584 1784 3584 
Q 2172 3584 2450 3431 
Q 2728 3278 2906 2969 
L 2906 3500 
L 3481 3500 
L 3481 434 
z
" transform="scale(0.015625)"/>
       <path id="DejaVuSans-28" d="M 1984 4856 
Q 1566 4138 1362 3434 
Q 1159 2731 1159 2009 
Q 1159 1288 1364 580 
Q 1569 -128 1984 -844 
L 1484 -844 
Q 1016 -109 783 600 
Q 550 1309 550 2009 
Q 550 2706 781 3412 
Q 1013 4119 1484 4856 
L 1984 4856 
z
" transform="scale(0.015625)"/>
       <path id="DejaVuSans-73" d="M 2834 3397 
L 2834 2853 
Q 2591 2978 2328 3040 
Q 2066 3103 1784 3103 
Q 1356 3103 1142 2972 
Q 928 2841 928 2578 
Q 928 2378 1081 2264 
Q 1234 2150 1697 2047 
L 1894 2003 
Q 2506 1872 2764 1633 
Q 3022 1394 3022 966 
Q 3022 478 2636 193 
Q 2250 -91 1575 -91 
Q 1294 -91 989 -36 
Q 684 19 347 128 
L 347 722 
Q 666 556 975 473 
Q 1284 391 1588 391 
Q 1994 391 2212 530 
Q 2431 669 2431 922 
Q 2431 1156 2273 1281 
Q 2116 1406 1581 1522 
L 1381 1569 
Q 847 1681 609 1914 
Q 372 2147 372 2553 
Q 372 3047 722 3315 
Q 1072 3584 1716 3584 
Q 2034 3584 2315 3537 
Q 2597 3491 2834 3397 
z
" transform="scale(0.015625)"/>
       <path id="DejaVuSans-64" d="M 2906 2969 
L 2906 4863 
L 3481 4863 
L 3481 0 
L 2906 0 
L 2906 525 
Q 2725 213 2448 61 
Q 2172 -91 1784 -91 
Q 1150 -91 751 415 
Q 353 922 353 1747 
Q 353 2572 751 3078 
Q 1150 3584 1784 3584 
Q 2172 3584 2448 3432 
Q 2725 3281 2906 2969 
z
M 947 1747 
Q 947 1113 1208 752 
Q 1469 391 1925 391 
Q 2381 391 2643 752 
Q 2906 1113 2906 1747 
Q 2906 2381 2643 2742 
Q 2381 3103 1925 3103 
Q 1469 3103 1208 2742 
Q 947 2381 947 1747 
z
" transform="scale(0.015625)"/>
       <path id="DejaVuSans-29" d="M 513 4856 
L 1013 4856 
Q 1481 4119 1714 3412 
Q 1947 2706 1947 2009 
Q 1947 1309 1714 600 
Q 1481 -109 1013 -844 
L 513 -844 
Q 928 -128 1133 580 
Q 1338 1288 1338 2009 
Q 1338 2731 1133 3434 
Q 928 4138 513 4856 
z
" transform="scale(0.015625)"/>
      </defs>
      <use xlink:href="#DejaVuSans-4f"/>
      <use xlink:href="#DejaVuSans-70" x="78.710938"/>
      <use xlink:href="#DejaVuSans-74" x="142.1875"/>
      <use xlink:href="#DejaVuSans-69" x="181.396484"/>
      <use xlink:href="#DejaVuSans-6d" x="209.179688"/>
      <use xlink:href="#DejaVuSans-61" x="306.591797"/>
      <use xlink:href="#DejaVuSans-6c" x="367.871094"/>
      <use xlink:href="#DejaVuSans-69" x="395.654297"/>
      <use xlink:href="#DejaVuSans-74" x="423.4375"/>
      <use xlink:href="#DejaVuSans-79" x="462.646484"/>
      <use xlink:href="#DejaVuSans-20" x="521.826172"/>
      <use xlink:href="#DejaVuSans-67" x="553.613281"/>
      <use xlink:href="#DejaVuSans-61" x="617.089844"/>
      <use xlink:href="#DejaVuSans-70" x="678.369141"/>
      <use xlink:href="#DejaVuSans-20" x="741.845703"/>
      <use xlink:href="#DejaVuSans-28" x="773.632812"/>
      <use xlink:href="#DejaVuSans-6e" x="812.646484"/>
      <use xlink:href="#DejaVuSans-6f" x="876.025391"/>
      <use xlink:href="#DejaVuSans-72" x="937.207031"/>
      <use xlink:href="#DejaVuSans-6d" x="976.570312"/>
      <use xlink:href="#DejaVuSans-20" x="1073.982422"/>
      <use xlink:href="#DejaVuSans-72" x="1105.769531"/>
      <use xlink:href="#DejaVuSans-65" x="1144.632812"/>
      <use xlink:href="#DejaVuSans-73" x="1206.15625"/>
      <use xlink:href="#DejaVuSans-69" x="1258.255859"/>
      <use xlink:href="#DejaVuSans-64" x="1286.039062"/>
      <use xlink:href="#DejaVuSans-75" x="1349.515625"/>
      <use xlink:href="#DejaVuSans-61" x="1412.894531"/>
      <use xlink:href="#DejaVuSans-6c" x="1474.173828"/>
      <use xlink:href="#DejaVuSans-29" x="1501.957031"/>
     </g>
    </g>
   </g>
   <g id="line2d_41">
    <path d="M -1 220.505854 
L 69.218182 220.50761 
L 115.129671 224.322857 
L 141.986171 228.142037 
L 161.041161 231.976663 
L 175.821359 235.8761 
L 187.89766 240.235597 
L 198.108028 242.116364 
L 206.95265 239.967035 
L 214.75416 237.578465 
L 221.732848 223.735057 
L 228.04584 227.564313 
L 233.80915 232.265229 
L 239.110881 221.478957 
L 244.019517 225.581791 
L 248.589348 224.434646 
L 252.86414 220.8648 
L 256.879689 222.458994 
L 260.665649 212.935987 
L 264.246861 217.295557 
L 267.644338 212.240464 
L 270.876017 218.164747 
L 273.957329 196.142759 
L 276.901649 199.960529 
L 279.720639 203.846432 
L 282.424536 212.567911 
L 285.02237 182.495958 
L 287.522149 186.310108 
L 289.931006 190.127351 
L 292.255325 194.002573 
L 294.500838 200.865995 
L 296.672713 179.376304 
L 298.775629 183.194902 
L 300.813829 187.098153 
L 302.791178 196.676015 
L 304.711205 161.534663 
L 306.577139 165.348646 
L 308.391945 169.163105 
L 310.15835 172.985651 
L 311.87887 176.978067 
L 313.555827 178.639369 
L 315.191374 168.99566 
L 316.787506 173.325991 
L 318.346079 168.614821 
L 319.868819 173.209588 
L 321.357337 155.449226 
L 322.813138 159.281973 
L 324.237629 163.555175 
L 325.632129 159.572466 
L 326.997873 162.089752 
L 328.336026 150.270346 
L 329.647678 154.281101 
L 330.93386 155.32324 
L 332.195541 147.160015 
L 333.433639 152.066652 
L 334.649017 141.986616 
L 335.842496 146.22218 
L 337.01485 142.758991 
L 338.166814 144.063922 
L 339.299086 135.281481 
L 340.412327 139.882546 
L 341.507166 132.337835 
L 342.584203 137.719544 
L 343.644006 124.362587 
L 344.687118 128.280958 
L 345.714058 134.582407 
L 346.725319 111.280455 
L 347.721372 115.096783 
L 348.702668 118.9539 
L 349.669638 124.287751 
L 350.622694 111.236795 
L 351.562232 115.168954 
L 352.488628 120.023028 
L 353.402247 101.456535 
L 354.303434 105.284344 
L 355.192525 109.412332 
L 356.06984 107.688165 
L 356.935686 105.415455 
L 357.790359 104.240963 
L 358.634145 100.862073 
L 359.467317 101.981386 
L 360.290138 93.637675 
L 361.102863 98.441915 
L 361.905737 89.160193 
L 362.698996 93.588201 
L 363.482866 87.758556 
L 364.257568 103.492406 
L 365.023314 44.443636 
L 365.780308 48.257588 
L 366.528749 52.071539 
L 367.268827 55.885491 
L 368.000727 59.699464 
L 368.724628 63.513765 
L 369.440702 67.333571 
L 370.149119 71.262941 
L 370.850038 76.36265 
L 371.543618 57.0201 
L 372.23001 60.844401 
L 372.909363 64.87991 
L 373.581818 65.200565 
" clip-path="url(#p2d50ab9c2d)" style="fill: none; stroke: #1f77b4; stroke-width: 1.5; stroke-linecap: square"/>
    <defs>
     <path id="m8a430835b6" d="M 0 3 
C 0.795609 3 1.55874 2.683901 2.12132 2.12132 
C 2.683901 1.55874 3 0.795609 3 0 
C 3 -0.795609 2.683901 -1.55874 2.12132 -2.12132 
C 1.55874 -2.683901 0.795609 -3 0 -3 
C -0.795609 -3 -1.55874 -2.683901 -2.12132 -2.12132 
C -2.683901 -1.55874 -3 -0.795609 -3 0 
C -3 0.795609 -2.683901 1.55874 -2.12132 2.12132 
C -1.55874 2.683901 -0.795609 3 0 3 
z
" style="stroke: #1f77b4"/>
    </defs>
    <g clip-path="url(#p2d50ab9c2d)">
     <use xlink:href="#m8a430835b6" x="-1" y="220.505854" style="fill: #1f77b4; stroke: #1f77b4"/>
     <use xlink:href="#m8a430835b6" x="69.218182" y="220.50761" style="fill: #1f77b4; stroke: #1f77b4"/>
     <use xlink:href="#m8a430835b6" x="115.129671" y="224.322857" style="fill: #1f77b4; stroke: #1f77b4"/>
     <use xlink:href="#m8a430835b6" x="141.986171" y="228.142037" style="fill: #1f77b4; stroke: #1f77b4"/>
     <use xlink:href="#m8a430835b6" x="161.041161" y="231.976663" style="fill: #1f77b4; stroke: #1f77b4"/>
     <use xlink:href="#m8a430835b6" x="175.821359" y="235.8761" style="fill: #1f77b4; stroke: #1f77b4"/>
     <use xlink:href="#m8a430835b6" x="187.89766" y="240.235597" style="fill: #1f77b4; stroke: #1f77b4"/>
     <use xlink:href="#m8a430835b6" x="198.108028" y="242.116364" style="fill: #1f77b4; stroke: #1f77b4"/>
     <use xlink:href="#m8a430835b6" x="206.95265" y="239.967035" style="fill: #1f77b4; stroke: #1f77b4"/>
     <use xlink:href="#m8a430835b6" x="214.75416" y="237.578465" style="fill: #1f77b4; stroke: #1f77b4"/>
     <use xlink:href="#m8a430835b6" x="221.732848" y="223.735057" style="fill: #1f77b4; stroke: #1f77b4"/>
     <use xlink:href="#m8a430835b6" x="228.04584" y="227.564313" style="fill: #1f77b4; stroke: #1f77b4"/>
     <use xlink:href="#m8a430835b6" x="233.80915" y="232.265229" style="fill: #1f77b4; stroke: #1f77b4"/>
     <use xlink:href="#m8a430835b6" x="239.110881" y="221.478957" style="fill: #1f77b4; stroke: #1f77b4"/>
     <use xlink:href="#m8a430835b6" x="244.019517" y="225.581791" style="fill: #1f77b4; stroke: #1f77b4"/>
     <use xlink:href="#m8a430835b6" x="248.589348" y="224.434646" style="fill: #1f77b4; stroke: #1f77b4"/>
     <use xlink:href="#m8a430835b6" x="252.86414" y="220.8648" style="fill: #1f77b4; stroke: #1f77b4"/>
     <use xlink:href="#m8a430835b6" x="256.879689" y="222.458994" style="fill: #1f77b4; stroke: #1f77b4"/>
     <use xlink:href="#m8a430835b6" x="260.665649" y="212.935987" style="fill: #1f77b4; stroke: #1f77b4"/>
     <use xlink:href="#m8a430835b6" x="264.246861" y="217.295557" style="fill: #1f77b4; stroke: #1f77b4"/>
     <use xlink:href="#m8a430835b6" x="267.644338" y="212.240464" style="fill: #1f77b4; stroke: #1f77b4"/>
     <use xlink:href="#m8a430835b6" x="270.876017" y="218.164747" style="fill: #1f77b4; stroke: #1f77b4"/>
     <use xlink:href="#m8a430835b6" x="273.957329" y="196.142759" style="fill: #1f77b4; stroke: #1f77b4"/>
     <use xlink:href="#m8a430835b6" x="276.901649" y="199.960529" style="fill: #1f77b4; stroke: #1f77b4"/>
     <use xlink:href="#m8a430835b6" x="279.720639" y="203.846432" style="fill: #1f77b4; stroke: #1f77b4"/>
     <use xlink:href="#m8a430835b6" x="282.424536" y="212.567911" style="fill: #1f77b4; stroke: #1f77b4"/>
     <use xlink:href="#m8a430835b6" x="285.02237" y="182.495958" style="fill: #1f77b4; stroke: #1f77b4"/>
     <use xlink:href="#m8a430835b6" x="287.522149" y="186.310108" style="fill: #1f77b4; stroke: #1f77b4"/>
     <use xlink:href="#m8a430835b6" x="289.931006" y="190.127351" style="fill: #1f77b4; stroke: #1f77b4"/>
     <use xlink:href="#m8a430835b6" x="292.255325" y="194.002573" style="fill: #1f77b4; stroke: #1f77b4"/>
     <use xlink:href="#m8a430835b6" x="294.500838" y="200.865995" style="fill: #1f77b4; stroke: #1f77b4"/>
     <use xlink:href="#m8a430835b6" x="296.672713" y="179.376304" style="fill: #1f77b4; stroke: #1f77b4"/>
     <use xlink:href="#m8a430835b6" x="298.775629" y="183.194902" style="fill: #1f77b4; stroke: #1f77b4"/>
     <use xlink:href="#m8a430835b6" x="300.813829" y="187.098153" style="fill: #1f77b4; stroke: #1f77b4"/>
     <use xlink:href="#m8a430835b6" x="302.791178" y="196.676015" style="fill: #1f77b4; stroke: #1f77b4"/>
     <use xlink:href="#m8a430835b6" x="304.711205" y="161.534663" style="fill: #1f77b4; stroke: #1f77b4"/>
     <use xlink:href="#m8a430835b6" x="306.577139" y="165.348646" style="fill: #1f77b4; stroke: #1f77b4"/>
     <use xlink:href="#m8a430835b6" x="308.391945" y="169.163105" style="fill: #1f77b4; stroke: #1f77b4"/>
     <use xlink:href="#m8a430835b6" x="310.15835" y="172.985651" style="fill: #1f77b4; stroke: #1f77b4"/>
     <use xlink:href="#m8a430835b6" x="311.87887" y="176.978067" style="fill: #1f77b4; stroke: #1f77b4"/>
     <use xlink:href="#m8a430835b6" x="313.555827" y="178.639369" style="fill: #1f77b4; stroke: #1f77b4"/>
     <use xlink:href="#m8a430835b6" x="315.191374" y="168.99566" style="fill: #1f77b4; stroke: #1f77b4"/>
     <use xlink:href="#m8a430835b6" x="316.787506" y="173.325991" style="fill: #1f77b4; stroke: #1f77b4"/>
     <use xlink:href="#m8a430835b6" x="318.346079" y="168.614821" style="fill: #1f77b4; stroke: #1f77b4"/>
     <use xlink:href="#m8a430835b6" x="319.868819" y="173.209588" style="fill: #1f77b4; stroke: #1f77b4"/>
     <use xlink:href="#m8a430835b6" x="321.357337" y="155.449226" style="fill: #1f77b4; stroke: #1f77b4"/>
     <use xlink:href="#m8a430835b6" x="322.813138" y="159.281973" style="fill: #1f77b4; stroke: #1f77b4"/>
     <use xlink:href="#m8a430835b6" x="324.237629" y="163.555175" style="fill: #1f77b4; stroke: #1f77b4"/>
     <use xlink:href="#m8a430835b6" x="325.632129" y="159.572466" style="fill: #1f77b4; stroke: #1f77b4"/>
     <use xlink:href="#m8a430835b6" x="326.997873" y="162.089752" style="fill: #1f77b4; stroke: #1f77b4"/>
     <use xlink:href="#m8a430835b6" x="328.336026" y="150.270346" style="fill: #1f77b4; stroke: #1f77b4"/>
     <use xlink:href="#m8a430835b6" x="329.647678" y="154.281101" style="fill: #1f77b4; stroke: #1f77b4"/>
     <use xlink:href="#m8a430835b6" x="330.93386" y="155.32324" style="fill: #1f77b4; stroke: #1f77b4"/>
     <use xlink:href="#m8a430835b6" x="332.195541" y="147.160015" style="fill: #1f77b4; stroke: #1f77b4"/>
     <use xlink:href="#m8a430835b6" x="333.433639" y="152.066652" style="fill: #1f77b4; stroke: #1f77b4"/>
     <use xlink:href="#m8a430835b6" x="334.649017" y="141.986616" style="fill: #1f77b4; stroke: #1f77b4"/>
     <use xlink:href="#m8a430835b6" x="335.842496" y="146.22218" style="fill: #1f77b4; stroke: #1f77b4"/>
     <use xlink:href="#m8a430835b6" x="337.01485" y="142.758991" style="fill: #1f77b4; stroke: #1f77b4"/>
     <use xlink:href="#m8a430835b6" x="338.166814" y="144.063922" style="fill: #1f77b4; stroke: #1f77b4"/>
     <use xlink:href="#m8a430835b6" x="339.299086" y="135.281481" style="fill: #1f77b4; stroke: #1f77b4"/>
     <use xlink:href="#m8a430835b6" x="340.412327" y="139.882546" style="fill: #1f77b4; stroke: #1f77b4"/>
     <use xlink:href="#m8a430835b6" x="341.507166" y="132.337835" style="fill: #1f77b4; stroke: #1f77b4"/>
     <use xlink:href="#m8a430835b6" x="342.584203" y="137.719544" style="fill: #1f77b4; stroke: #1f77b4"/>
     <use xlink:href="#m8a430835b6" x="343.644006" y="124.362587" style="fill: #1f77b4; stroke: #1f77b4"/>
     <use xlink:href="#m8a430835b6" x="344.687118" y="128.280958" style="fill: #1f77b4; stroke: #1f77b4"/>
     <use xlink:href="#m8a430835b6" x="345.714058" y="134.582407" style="fill: #1f77b4; stroke: #1f77b4"/>
     <use xlink:href="#m8a430835b6" x="346.725319" y="111.280455" style="fill: #1f77b4; stroke: #1f77b4"/>
     <use xlink:href="#m8a430835b6" x="347.721372" y="115.096783" style="fill: #1f77b4; stroke: #1f77b4"/>
     <use xlink:href="#m8a430835b6" x="348.702668" y="118.9539" style="fill: #1f77b4; stroke: #1f77b4"/>
     <use xlink:href="#m8a430835b6" x="349.669638" y="124.287751" style="fill: #1f77b4; stroke: #1f77b4"/>
     <use xlink:href="#m8a430835b6" x="350.622694" y="111.236795" style="fill: #1f77b4; stroke: #1f77b4"/>
     <use xlink:href="#m8a430835b6" x="351.562232" y="115.168954" style="fill: #1f77b4; stroke: #1f77b4"/>
     <use xlink:href="#m8a430835b6" x="352.488628" y="120.023028" style="fill: #1f77b4; stroke: #1f77b4"/>
     <use xlink:href="#m8a430835b6" x="353.402247" y="101.456535" style="fill: #1f77b4; stroke: #1f77b4"/>
     <use xlink:href="#m8a430835b6" x="354.303434" y="105.284344" style="fill: #1f77b4; stroke: #1f77b4"/>
     <use xlink:href="#m8a430835b6" x="355.192525" y="109.412332" style="fill: #1f77b4; stroke: #1f77b4"/>
     <use xlink:href="#m8a430835b6" x="356.06984" y="107.688165" style="fill: #1f77b4; stroke: #1f77b4"/>
     <use xlink:href="#m8a430835b6" x="356.935686" y="105.415455" style="fill: #1f77b4; stroke: #1f77b4"/>
     <use xlink:href="#m8a430835b6" x="357.790359" y="104.240963" style="fill: #1f77b4; stroke: #1f77b4"/>
     <use xlink:href="#m8a430835b6" x="358.634145" y="100.862073" style="fill: #1f77b4; stroke: #1f77b4"/>
     <use xlink:href="#m8a430835b6" x="359.467317" y="101.981386" style="fill: #1f77b4; stroke: #1f77b4"/>
     <use xlink:href="#m8a430835b6" x="360.290138" y="93.637675" style="fill: #1f77b4; stroke: #1f77b4"/>
     <use xlink:href="#m8a430835b6" x="361.102863" y="98.441915" style="fill: #1f77b4; stroke: #1f77b4"/>
     <use xlink:href="#m8a430835b6" x="361.905737" y="89.160193" style="fill: #1f77b4; stroke: #1f77b4"/>
     <use xlink:href="#m8a430835b6" x="362.698996" y="93.588201" style="fill: #1f77b4; stroke: #1f77b4"/>
     <use xlink:href="#m8a430835b6" x="363.482866" y="87.758556" style="fill: #1f77b4; stroke: #1f77b4"/>
     <use xlink:href="#m8a430835b6" x="364.257568" y="103.492406" style="fill: #1f77b4; stroke: #1f77b4"/>
     <use xlink:href="#m8a430835b6" x="365.023314" y="44.443636" style="fill: #1f77b4; stroke: #1f77b4"/>
     <use xlink:href="#m8a430835b6" x="365.780308" y="48.257588" style="fill: #1f77b4; stroke: #1f77b4"/>
     <use xlink:href="#m8a430835b6" x="366.528749" y="52.071539" style="fill: #1f77b4; stroke: #1f77b4"/>
     <use xlink:href="#m8a430835b6" x="367.268827" y="55.885491" style="fill: #1f77b4; stroke: #1f77b4"/>
     <use xlink:href="#m8a430835b6" x="368.000727" y="59.699464" style="fill: #1f77b4; stroke: #1f77b4"/>
     <use xlink:href="#m8a430835b6" x="368.724628" y="63.513765" style="fill: #1f77b4; stroke: #1f77b4"/>
     <use xlink:href="#m8a430835b6" x="369.440702" y="67.333571" style="fill: #1f77b4; stroke: #1f77b4"/>
     <use xlink:href="#m8a430835b6" x="370.149119" y="71.262941" style="fill: #1f77b4; stroke: #1f77b4"/>
     <use xlink:href="#m8a430835b6" x="370.850038" y="76.36265" style="fill: #1f77b4; stroke: #1f77b4"/>
     <use xlink:href="#m8a430835b6" x="371.543618" y="57.0201" style="fill: #1f77b4; stroke: #1f77b4"/>
     <use xlink:href="#m8a430835b6" x="372.23001" y="60.844401" style="fill: #1f77b4; stroke: #1f77b4"/>
     <use xlink:href="#m8a430835b6" x="372.909363" y="64.87991" style="fill: #1f77b4; stroke: #1f77b4"/>
     <use xlink:href="#m8a430835b6" x="373.581818" y="65.200565" style="fill: #1f77b4; stroke: #1f77b4"/>
    </g>
   </g>
   <g id="patch_3">
    <path d="M 54 252 
L 54 34.56 
" style="fill: none; stroke: #000000; stroke-width: 0.8; stroke-linejoin: miter; stroke-linecap: square"/>
   </g>
   <g id="patch_4">
    <path d="M 388.8 252 
L 388.8 34.56 
" style="fill: none; stroke: #000000; stroke-width: 0.8; stroke-linejoin: miter; stroke-linecap: square"/>
   </g>
   <g id="patch_5">
    <path d="M 54 252 
L 388.8 252 
" style="fill: none; stroke: #000000; stroke-width: 0.8; stroke-linejoin: miter; stroke-linecap: square"/>
   </g>
   <g id="patch_6">
    <path d="M 54 34.56 
L 388.8 34.56 
" style="fill: none; stroke: #000000; stroke-width: 0.8; stroke-linejoin: miter; stroke-linecap: square"/>
   </g>
  </g>
 </g>
 <defs>
  <clipPath id="p2d50ab9c2d">
   <rect x="54" y="34.56" width="334.8" height="217.44"/>
  </clipPath>
 </defs>
</svg>
