<?xml version="1.0" encoding="utf-8" standalone="no"?>
<!DOCTYPE svg PUBLIC "-//W3C//DTD SVG 1.1//EN"
  "http://www.w3.org/Graphics/SVG/1.1/DTD/svg11.dtd">
<svg xmlns:xlink="http://www.w3.org/1999/xlink" width="460.8pt" height="345.6pt" viewBox="0 0 460.8 345.6" xmlns="http://www.w3.org/2000/svg" version="1.1">
 <metadata>
  <rdf:RDF xmlns:dc="http://purl.org/dc/elements/1.1/" xmlns:cc="http://creativecommons.org/ns#" xmlns:rdf="http://www.w3.org/1999/02/22-rdf-syntax-ns#">
   <cc:Work>
    <dc:type rdf:resource="http://purl.org/dc/dcmitype/StillImage"/>
    <dc:date>2023-02-17T20:38:29.569345</dc:date>
    <dc:format>image/svg+xml</dc:format>
    <dc:creator>
     <cc:Agent>
      <dc:title>Matplotlib v3.6.3, https://matplotlib.org/</dc:title>
     </cc:Agent>
    </dc:creator>
   </cc:Work>
  </rdf:RDF>
 </metadata>
 <defs>
  <style type="text/css">*{stroke-linejoin: round; stroke-linecap: butt}</style>
 </defs>
 <g id="figure_1">
  <g id="patch_1">
   <path d="M 0 345.6 
L 460.8 345.6 
L 460.8 0 
L 0 0 
z
" style="fill: #ffffff"/>
  </g>
  <g id="axes_1">
   <g id="patch_2">
    <path d="M 57.6 307.584 
L 414.72 307.584 
L 414.72 41.472 
L 57.6 41.472 
z
" style="fill: #ffffff"/>
   </g>
   <g id="matplotlib.axis_1">
    <g id="xtick_1">
     <g id="line2d_1">
      <path d="M 73.832727 307.584 
L 73.832727 41.472 
" clip-path="url(#p8fb09b55e7)" style="fill: none; stroke: #b0b0b0; stroke-width: 0.8; stroke-linecap: square"/>
     </g>
     <g id="line2d_2">
      <defs>
       <path id="mc3f67768ab" d="M 0 0 
L 0 3.5 
" style="stroke: #000000; stroke-width: 0.8"/>
      </defs>
      <g>
       <use xlink:href="#mc3f67768ab" x="73.832727" y="307.584" style="stroke: #000000; stroke-width: 0.8"/>
      </g>
     </g>
     <g id="text_1">
      <!-- $\mathdefault{10^{0}}$ -->
      <g transform="translate(65.032727 322.182437) scale(0.1 -0.1)">
       <defs>
        <path id="DejaVuSans-31" d="M 794 531 
L 1825 531 
L 1825 4091 
L 703 3866 
L 703 4441 
L 1819 4666 
L 2450 4666 
L 2450 531 
L 3481 531 
L 3481 0 
L 794 0 
L 794 531 
z
" transform="scale(0.015625)"/>
        <path id="DejaVuSans-30" d="M 2034 4250 
Q 1547 4250 1301 3770 
Q 1056 3291 1056 2328 
Q 1056 1369 1301 889 
Q 1547 409 2034 409 
Q 2525 409 2770 889 
Q 3016 1369 3016 2328 
Q 3016 3291 2770 3770 
Q 2525 4250 2034 4250 
z
M 2034 4750 
Q 2819 4750 3233 4129 
Q 3647 3509 3647 2328 
Q 3647 1150 3233 529 
Q 2819 -91 2034 -91 
Q 1250 -91 836 529 
Q 422 1150 422 2328 
Q 422 3509 836 4129 
Q 1250 4750 2034 4750 
z
" transform="scale(0.015625)"/>
       </defs>
       <use xlink:href="#DejaVuSans-31" transform="translate(0 0.765625)"/>
       <use xlink:href="#DejaVuSans-30" transform="translate(63.623047 0.765625)"/>
       <use xlink:href="#DejaVuSans-30" transform="translate(128.203125 39.046875) scale(0.7)"/>
      </g>
     </g>
    </g>
    <g id="xtick_2">
     <g id="line2d_3">
      <path d="M 236.515038 307.584 
L 236.515038 41.472 
" clip-path="url(#p8fb09b55e7)" style="fill: none; stroke: #b0b0b0; stroke-width: 0.8; stroke-linecap: square"/>
     </g>
     <g id="line2d_4">
      <g>
       <use xlink:href="#mc3f67768ab" x="236.515038" y="307.584" style="stroke: #000000; stroke-width: 0.8"/>
      </g>
     </g>
     <g id="text_2">
      <!-- $\mathdefault{10^{1}}$ -->
      <g transform="translate(227.715038 322.182437) scale(0.1 -0.1)">
       <use xlink:href="#DejaVuSans-31" transform="translate(0 0.684375)"/>
       <use xlink:href="#DejaVuSans-30" transform="translate(63.623047 0.684375)"/>
       <use xlink:href="#DejaVuSans-31" transform="translate(128.203125 38.965625) scale(0.7)"/>
      </g>
     </g>
    </g>
    <g id="xtick_3">
     <g id="line2d_5">
      <path d="M 399.197349 307.584 
L 399.197349 41.472 
" clip-path="url(#p8fb09b55e7)" style="fill: none; stroke: #b0b0b0; stroke-width: 0.8; stroke-linecap: square"/>
     </g>
     <g id="line2d_6">
      <g>
       <use xlink:href="#mc3f67768ab" x="399.197349" y="307.584" style="stroke: #000000; stroke-width: 0.8"/>
      </g>
     </g>
     <g id="text_3">
      <!-- $\mathdefault{10^{2}}$ -->
      <g transform="translate(390.397349 322.182437) scale(0.1 -0.1)">
       <defs>
        <path id="DejaVuSans-32" d="M 1228 531 
L 3431 531 
L 3431 0 
L 469 0 
L 469 531 
Q 828 903 1448 1529 
Q 2069 2156 2228 2338 
Q 2531 2678 2651 2914 
Q 2772 3150 2772 3378 
Q 2772 3750 2511 3984 
Q 2250 4219 1831 4219 
Q 1534 4219 1204 4116 
Q 875 4013 500 3803 
L 500 4441 
Q 881 4594 1212 4672 
Q 1544 4750 1819 4750 
Q 2544 4750 2975 4387 
Q 3406 4025 3406 3419 
Q 3406 3131 3298 2873 
Q 3191 2616 2906 2266 
Q 2828 2175 2409 1742 
Q 1991 1309 1228 531 
z
" transform="scale(0.015625)"/>
       </defs>
       <use xlink:href="#DejaVuSans-31" transform="translate(0 0.765625)"/>
       <use xlink:href="#DejaVuSans-30" transform="translate(63.623047 0.765625)"/>
       <use xlink:href="#DejaVuSans-32" transform="translate(128.203125 39.046875) scale(0.7)"/>
      </g>
     </g>
    </g>
    <g id="xtick_4">
     <g id="line2d_7">
      <defs>
       <path id="m7b04d05499" d="M 0 0 
L 0 2 
" style="stroke: #000000; stroke-width: 0.6"/>
      </defs>
      <g>
       <use xlink:href="#m7b04d05499" x="58.067182" y="307.584" style="stroke: #000000; stroke-width: 0.6"/>
      </g>
     </g>
    </g>
    <g id="xtick_5">
     <g id="line2d_8">
      <g>
       <use xlink:href="#m7b04d05499" x="66.388793" y="307.584" style="stroke: #000000; stroke-width: 0.6"/>
      </g>
     </g>
    </g>
    <g id="xtick_6">
     <g id="line2d_9">
      <g>
       <use xlink:href="#m7b04d05499" x="122.804983" y="307.584" style="stroke: #000000; stroke-width: 0.6"/>
      </g>
     </g>
    </g>
    <g id="xtick_7">
     <g id="line2d_10">
      <g>
       <use xlink:href="#m7b04d05499" x="151.451916" y="307.584" style="stroke: #000000; stroke-width: 0.6"/>
      </g>
     </g>
    </g>
    <g id="xtick_8">
     <g id="line2d_11">
      <g>
       <use xlink:href="#m7b04d05499" x="171.777238" y="307.584" style="stroke: #000000; stroke-width: 0.6"/>
      </g>
     </g>
    </g>
    <g id="xtick_9">
     <g id="line2d_12">
      <g>
       <use xlink:href="#m7b04d05499" x="187.542783" y="307.584" style="stroke: #000000; stroke-width: 0.6"/>
      </g>
     </g>
    </g>
    <g id="xtick_10">
     <g id="line2d_13">
      <g>
       <use xlink:href="#m7b04d05499" x="200.424171" y="307.584" style="stroke: #000000; stroke-width: 0.6"/>
      </g>
     </g>
    </g>
    <g id="xtick_11">
     <g id="line2d_14">
      <g>
       <use xlink:href="#m7b04d05499" x="211.315229" y="307.584" style="stroke: #000000; stroke-width: 0.6"/>
      </g>
     </g>
    </g>
    <g id="xtick_12">
     <g id="line2d_15">
      <g>
       <use xlink:href="#m7b04d05499" x="220.749493" y="307.584" style="stroke: #000000; stroke-width: 0.6"/>
      </g>
     </g>
    </g>
    <g id="xtick_13">
     <g id="line2d_16">
      <g>
       <use xlink:href="#m7b04d05499" x="229.071104" y="307.584" style="stroke: #000000; stroke-width: 0.6"/>
      </g>
     </g>
    </g>
    <g id="xtick_14">
     <g id="line2d_17">
      <g>
       <use xlink:href="#m7b04d05499" x="285.487294" y="307.584" style="stroke: #000000; stroke-width: 0.6"/>
      </g>
     </g>
    </g>
    <g id="xtick_15">
     <g id="line2d_18">
      <g>
       <use xlink:href="#m7b04d05499" x="314.134227" y="307.584" style="stroke: #000000; stroke-width: 0.6"/>
      </g>
     </g>
    </g>
    <g id="xtick_16">
     <g id="line2d_19">
      <g>
       <use xlink:href="#m7b04d05499" x="334.459549" y="307.584" style="stroke: #000000; stroke-width: 0.6"/>
      </g>
     </g>
    </g>
    <g id="xtick_17">
     <g id="line2d_20">
      <g>
       <use xlink:href="#m7b04d05499" x="350.225094" y="307.584" style="stroke: #000000; stroke-width: 0.6"/>
      </g>
     </g>
    </g>
    <g id="xtick_18">
     <g id="line2d_21">
      <g>
       <use xlink:href="#m7b04d05499" x="363.106482" y="307.584" style="stroke: #000000; stroke-width: 0.6"/>
      </g>
     </g>
    </g>
    <g id="xtick_19">
     <g id="line2d_22">
      <g>
       <use xlink:href="#m7b04d05499" x="373.997541" y="307.584" style="stroke: #000000; stroke-width: 0.6"/>
      </g>
     </g>
    </g>
    <g id="xtick_20">
     <g id="line2d_23">
      <g>
       <use xlink:href="#m7b04d05499" x="383.431804" y="307.584" style="stroke: #000000; stroke-width: 0.6"/>
      </g>
     </g>
    </g>
    <g id="xtick_21">
     <g id="line2d_24">
      <g>
       <use xlink:href="#m7b04d05499" x="391.753415" y="307.584" style="stroke: #000000; stroke-width: 0.6"/>
      </g>
     </g>
    </g>
    <g id="text_4">
     <!-- Iteration count -->
     <g transform="translate(199.256094 335.860562) scale(0.1 -0.1)">
      <defs>
       <path id="DejaVuSans-49" d="M 628 4666 
L 1259 4666 
L 1259 0 
L 628 0 
L 628 4666 
z
" transform="scale(0.015625)"/>
       <path id="DejaVuSans-74" d="M 1172 4494 
L 1172 3500 
L 2356 3500 
L 2356 3053 
L 1172 3053 
L 1172 1153 
Q 1172 725 1289 603 
Q 1406 481 1766 481 
L 2356 481 
L 2356 0 
L 1766 0 
Q 1100 0 847 248 
Q 594 497 594 1153 
L 594 3053 
L 172 3053 
L 172 3500 
L 594 3500 
L 594 4494 
L 1172 4494 
z
" transform="scale(0.015625)"/>
       <path id="DejaVuSans-65" d="M 3597 1894 
L 3597 1613 
L 953 1613 
Q 991 1019 1311 708 
Q 1631 397 2203 397 
Q 2534 397 2845 478 
Q 3156 559 3463 722 
L 3463 178 
Q 3153 47 2828 -22 
Q 2503 -91 2169 -91 
Q 1331 -91 842 396 
Q 353 884 353 1716 
Q 353 2575 817 3079 
Q 1281 3584 2069 3584 
Q 2775 3584 3186 3129 
Q 3597 2675 3597 1894 
z
M 3022 2063 
Q 3016 2534 2758 2815 
Q 2500 3097 2075 3097 
Q 1594 3097 1305 2825 
Q 1016 2553 972 2059 
L 3022 2063 
z
" transform="scale(0.015625)"/>
       <path id="DejaVuSans-72" d="M 2631 2963 
Q 2534 3019 2420 3045 
Q 2306 3072 2169 3072 
Q 1681 3072 1420 2755 
Q 1159 2438 1159 1844 
L 1159 0 
L 581 0 
L 581 3500 
L 1159 3500 
L 1159 2956 
Q 1341 3275 1631 3429 
Q 1922 3584 2338 3584 
Q 2397 3584 2469 3576 
Q 2541 3569 2628 3553 
L 2631 2963 
z
" transform="scale(0.015625)"/>
       <path id="DejaVuSans-61" d="M 2194 1759 
Q 1497 1759 1228 1600 
Q 959 1441 959 1056 
Q 959 750 1161 570 
Q 1363 391 1709 391 
Q 2188 391 2477 730 
Q 2766 1069 2766 1631 
L 2766 1759 
L 2194 1759 
z
M 3341 1997 
L 3341 0 
L 2766 0 
L 2766 531 
Q 2569 213 2275 61 
Q 1981 -91 1556 -91 
Q 1019 -91 701 211 
Q 384 513 384 1019 
Q 384 1609 779 1909 
Q 1175 2209 1959 2209 
L 2766 2209 
L 2766 2266 
Q 2766 2663 2505 2880 
Q 2244 3097 1772 3097 
Q 1472 3097 1187 3025 
Q 903 2953 641 2809 
L 641 3341 
Q 956 3463 1253 3523 
Q 1550 3584 1831 3584 
Q 2591 3584 2966 3190 
Q 3341 2797 3341 1997 
z
" transform="scale(0.015625)"/>
       <path id="DejaVuSans-69" d="M 603 3500 
L 1178 3500 
L 1178 0 
L 603 0 
L 603 3500 
z
M 603 4863 
L 1178 4863 
L 1178 4134 
L 603 4134 
L 603 4863 
z
" transform="scale(0.015625)"/>
       <path id="DejaVuSans-6f" d="M 1959 3097 
Q 1497 3097 1228 2736 
Q 959 2375 959 1747 
Q 959 1119 1226 758 
Q 1494 397 1959 397 
Q 2419 397 2687 759 
Q 2956 1122 2956 1747 
Q 2956 2369 2687 2733 
Q 2419 3097 1959 3097 
z
M 1959 3584 
Q 2709 3584 3137 3096 
Q 3566 2609 3566 1747 
Q 3566 888 3137 398 
Q 2709 -91 1959 -91 
Q 1206 -91 779 398 
Q 353 888 353 1747 
Q 353 2609 779 3096 
Q 1206 3584 1959 3584 
z
" transform="scale(0.015625)"/>
       <path id="DejaVuSans-6e" d="M 3513 2113 
L 3513 0 
L 2938 0 
L 2938 2094 
Q 2938 2591 2744 2837 
Q 2550 3084 2163 3084 
Q 1697 3084 1428 2787 
Q 1159 2491 1159 1978 
L 1159 0 
L 581 0 
L 581 3500 
L 1159 3500 
L 1159 2956 
Q 1366 3272 1645 3428 
Q 1925 3584 2291 3584 
Q 2894 3584 3203 3211 
Q 3513 2838 3513 2113 
z
" transform="scale(0.015625)"/>
       <path id="DejaVuSans-20" transform="scale(0.015625)"/>
       <path id="DejaVuSans-63" d="M 3122 3366 
L 3122 2828 
Q 2878 2963 2633 3030 
Q 2388 3097 2138 3097 
Q 1578 3097 1268 2742 
Q 959 2388 959 1747 
Q 959 1106 1268 751 
Q 1578 397 2138 397 
Q 2388 397 2633 464 
Q 2878 531 3122 666 
L 3122 134 
Q 2881 22 2623 -34 
Q 2366 -91 2075 -91 
Q 1284 -91 818 406 
Q 353 903 353 1747 
Q 353 2603 823 3093 
Q 1294 3584 2113 3584 
Q 2378 3584 2631 3529 
Q 2884 3475 3122 3366 
z
" transform="scale(0.015625)"/>
       <path id="DejaVuSans-75" d="M 544 1381 
L 544 3500 
L 1119 3500 
L 1119 1403 
Q 1119 906 1312 657 
Q 1506 409 1894 409 
Q 2359 409 2629 706 
Q 2900 1003 2900 1516 
L 2900 3500 
L 3475 3500 
L 3475 0 
L 2900 0 
L 2900 538 
Q 2691 219 2414 64 
Q 2138 -91 1772 -91 
Q 1169 -91 856 284 
Q 544 659 544 1381 
z
M 1991 3584 
L 1991 3584 
z
" transform="scale(0.015625)"/>
      </defs>
      <use xlink:href="#DejaVuSans-49"/>
      <use xlink:href="#DejaVuSans-74" x="29.492188"/>
      <use xlink:href="#DejaVuSans-65" x="68.701172"/>
      <use xlink:href="#DejaVuSans-72" x="130.224609"/>
      <use xlink:href="#DejaVuSans-61" x="171.337891"/>
      <use xlink:href="#DejaVuSans-74" x="232.617188"/>
      <use xlink:href="#DejaVuSans-69" x="271.826172"/>
      <use xlink:href="#DejaVuSans-6f" x="299.609375"/>
      <use xlink:href="#DejaVuSans-6e" x="360.791016"/>
      <use xlink:href="#DejaVuSans-20" x="424.169922"/>
      <use xlink:href="#DejaVuSans-63" x="455.957031"/>
      <use xlink:href="#DejaVuSans-6f" x="510.9375"/>
      <use xlink:href="#DejaVuSans-75" x="572.119141"/>
      <use xlink:href="#DejaVuSans-6e" x="635.498047"/>
      <use xlink:href="#DejaVuSans-74" x="698.876953"/>
     </g>
    </g>
   </g>
   <g id="matplotlib.axis_2">
    <g id="ytick_1">
     <g id="line2d_25">
      <path d="M 57.6 279.432377 
L 414.72 279.432377 
" clip-path="url(#p8fb09b55e7)" style="fill: none; stroke: #b0b0b0; stroke-width: 0.8; stroke-linecap: square"/>
     </g>
     <g id="line2d_26">
      <defs>
       <path id="m04d367ba33" d="M 0 0 
L -3.5 0 
" style="stroke: #000000; stroke-width: 0.8"/>
      </defs>
      <g>
       <use xlink:href="#m04d367ba33" x="57.6" y="279.432377" style="stroke: #000000; stroke-width: 0.8"/>
      </g>
     </g>
     <g id="text_5">
      <!-- $\mathdefault{10^{-7}}$ -->
      <g transform="translate(27.1 283.231595) scale(0.1 -0.1)">
       <defs>
        <path id="DejaVuSans-2212" d="M 678 2272 
L 4684 2272 
L 4684 1741 
L 678 1741 
L 678 2272 
z
" transform="scale(0.015625)"/>
        <path id="DejaVuSans-37" d="M 525 4666 
L 3525 4666 
L 3525 4397 
L 1831 0 
L 1172 0 
L 2766 4134 
L 525 4134 
L 525 4666 
z
" transform="scale(0.015625)"/>
       </defs>
       <use xlink:href="#DejaVuSans-31" transform="translate(0 0.684375)"/>
       <use xlink:href="#DejaVuSans-30" transform="translate(63.623047 0.684375)"/>
       <use xlink:href="#DejaVuSans-2212" transform="translate(128.203125 38.965625) scale(0.7)"/>
       <use xlink:href="#DejaVuSans-37" transform="translate(186.855469 38.965625) scale(0.7)"/>
      </g>
     </g>
    </g>
    <g id="ytick_2">
     <g id="line2d_27">
      <path d="M 57.6 242.660082 
L 414.72 242.660082 
" clip-path="url(#p8fb09b55e7)" style="fill: none; stroke: #b0b0b0; stroke-width: 0.8; stroke-linecap: square"/>
     </g>
     <g id="line2d_28">
      <g>
       <use xlink:href="#m04d367ba33" x="57.6" y="242.660082" style="stroke: #000000; stroke-width: 0.8"/>
      </g>
     </g>
     <g id="text_6">
      <!-- $\mathdefault{10^{-4}}$ -->
      <g transform="translate(27.1 246.4593) scale(0.1 -0.1)">
       <defs>
        <path id="DejaVuSans-34" d="M 2419 4116 
L 825 1625 
L 2419 1625 
L 2419 4116 
z
M 2253 4666 
L 3047 4666 
L 3047 1625 
L 3713 1625 
L 3713 1100 
L 3047 1100 
L 3047 0 
L 2419 0 
L 2419 1100 
L 313 1100 
L 313 1709 
L 2253 4666 
z
" transform="scale(0.015625)"/>
       </defs>
       <use xlink:href="#DejaVuSans-31" transform="translate(0 0.684375)"/>
       <use xlink:href="#DejaVuSans-30" transform="translate(63.623047 0.684375)"/>
       <use xlink:href="#DejaVuSans-2212" transform="translate(128.203125 38.965625) scale(0.7)"/>
       <use xlink:href="#DejaVuSans-34" transform="translate(186.855469 38.965625) scale(0.7)"/>
      </g>
     </g>
    </g>
    <g id="ytick_3">
     <g id="line2d_29">
      <path d="M 57.6 205.887787 
L 414.72 205.887787 
" clip-path="url(#p8fb09b55e7)" style="fill: none; stroke: #b0b0b0; stroke-width: 0.8; stroke-linecap: square"/>
     </g>
     <g id="line2d_30">
      <g>
       <use xlink:href="#m04d367ba33" x="57.6" y="205.887787" style="stroke: #000000; stroke-width: 0.8"/>
      </g>
     </g>
     <g id="text_7">
      <!-- $\mathdefault{10^{-1}}$ -->
      <g transform="translate(27.1 209.687005) scale(0.1 -0.1)">
       <use xlink:href="#DejaVuSans-31" transform="translate(0 0.684375)"/>
       <use xlink:href="#DejaVuSans-30" transform="translate(63.623047 0.684375)"/>
       <use xlink:href="#DejaVuSans-2212" transform="translate(128.203125 38.965625) scale(0.7)"/>
       <use xlink:href="#DejaVuSans-31" transform="translate(186.855469 38.965625) scale(0.7)"/>
      </g>
     </g>
    </g>
    <g id="ytick_4">
     <g id="line2d_31">
      <path d="M 57.6 169.115492 
L 414.72 169.115492 
" clip-path="url(#p8fb09b55e7)" style="fill: none; stroke: #b0b0b0; stroke-width: 0.8; stroke-linecap: square"/>
     </g>
     <g id="line2d_32">
      <g>
       <use xlink:href="#m04d367ba33" x="57.6" y="169.115492" style="stroke: #000000; stroke-width: 0.8"/>
      </g>
     </g>
     <g id="text_8">
      <!-- $\mathdefault{10^{2}}$ -->
      <g transform="translate(33 172.91471) scale(0.1 -0.1)">
       <use xlink:href="#DejaVuSans-31" transform="translate(0 0.765625)"/>
       <use xlink:href="#DejaVuSans-30" transform="translate(63.623047 0.765625)"/>
       <use xlink:href="#DejaVuSans-32" transform="translate(128.203125 39.046875) scale(0.7)"/>
      </g>
     </g>
    </g>
    <g id="ytick_5">
     <g id="line2d_33">
      <path d="M 57.6 132.343197 
L 414.72 132.343197 
" clip-path="url(#p8fb09b55e7)" style="fill: none; stroke: #b0b0b0; stroke-width: 0.8; stroke-linecap: square"/>
     </g>
     <g id="line2d_34">
      <g>
       <use xlink:href="#m04d367ba33" x="57.6" y="132.343197" style="stroke: #000000; stroke-width: 0.8"/>
      </g>
     </g>
     <g id="text_9">
      <!-- $\mathdefault{10^{5}}$ -->
      <g transform="translate(33 136.142415) scale(0.1 -0.1)">
       <defs>
        <path id="DejaVuSans-35" d="M 691 4666 
L 3169 4666 
L 3169 4134 
L 1269 4134 
L 1269 2991 
Q 1406 3038 1543 3061 
Q 1681 3084 1819 3084 
Q 2600 3084 3056 2656 
Q 3513 2228 3513 1497 
Q 3513 744 3044 326 
Q 2575 -91 1722 -91 
Q 1428 -91 1123 -41 
Q 819 9 494 109 
L 494 744 
Q 775 591 1075 516 
Q 1375 441 1709 441 
Q 2250 441 2565 725 
Q 2881 1009 2881 1497 
Q 2881 1984 2565 2268 
Q 2250 2553 1709 2553 
Q 1456 2553 1204 2497 
Q 953 2441 691 2322 
L 691 4666 
z
" transform="scale(0.015625)"/>
       </defs>
       <use xlink:href="#DejaVuSans-31" transform="translate(0 0.684375)"/>
       <use xlink:href="#DejaVuSans-30" transform="translate(63.623047 0.684375)"/>
       <use xlink:href="#DejaVuSans-35" transform="translate(128.203125 38.965625) scale(0.7)"/>
      </g>
     </g>
    </g>
    <g id="ytick_6">
     <g id="line2d_35">
      <path d="M 57.6 95.570902 
L 414.72 95.570902 
" clip-path="url(#p8fb09b55e7)" style="fill: none; stroke: #b0b0b0; stroke-width: 0.8; stroke-linecap: square"/>
     </g>
     <g id="line2d_36">
      <g>
       <use xlink:href="#m04d367ba33" x="57.6" y="95.570902" style="stroke: #000000; stroke-width: 0.8"/>
      </g>
     </g>
     <g id="text_10">
      <!-- $\mathdefault{10^{8}}$ -->
      <g transform="translate(33 99.37012) scale(0.1 -0.1)">
       <defs>
        <path id="DejaVuSans-38" d="M 2034 2216 
Q 1584 2216 1326 1975 
Q 1069 1734 1069 1313 
Q 1069 891 1326 650 
Q 1584 409 2034 409 
Q 2484 409 2743 651 
Q 3003 894 3003 1313 
Q 3003 1734 2745 1975 
Q 2488 2216 2034 2216 
z
M 1403 2484 
Q 997 2584 770 2862 
Q 544 3141 544 3541 
Q 544 4100 942 4425 
Q 1341 4750 2034 4750 
Q 2731 4750 3128 4425 
Q 3525 4100 3525 3541 
Q 3525 3141 3298 2862 
Q 3072 2584 2669 2484 
Q 3125 2378 3379 2068 
Q 3634 1759 3634 1313 
Q 3634 634 3220 271 
Q 2806 -91 2034 -91 
Q 1263 -91 848 271 
Q 434 634 434 1313 
Q 434 1759 690 2068 
Q 947 2378 1403 2484 
z
M 1172 3481 
Q 1172 3119 1398 2916 
Q 1625 2713 2034 2713 
Q 2441 2713 2670 2916 
Q 2900 3119 2900 3481 
Q 2900 3844 2670 4047 
Q 2441 4250 2034 4250 
Q 1625 4250 1398 4047 
Q 1172 3844 1172 3481 
z
" transform="scale(0.015625)"/>
       </defs>
       <use xlink:href="#DejaVuSans-31" transform="translate(0 0.765625)"/>
       <use xlink:href="#DejaVuSans-30" transform="translate(63.623047 0.765625)"/>
       <use xlink:href="#DejaVuSans-38" transform="translate(128.203125 39.046875) scale(0.7)"/>
      </g>
     </g>
    </g>
    <g id="ytick_7">
     <g id="line2d_37">
      <path d="M 57.6 58.798607 
L 414.72 58.798607 
" clip-path="url(#p8fb09b55e7)" style="fill: none; stroke: #b0b0b0; stroke-width: 0.8; stroke-linecap: square"/>
     </g>
     <g id="line2d_38">
      <g>
       <use xlink:href="#m04d367ba33" x="57.6" y="58.798607" style="stroke: #000000; stroke-width: 0.8"/>
      </g>
     </g>
     <g id="text_11">
      <!-- $\mathdefault{10^{11}}$ -->
      <g transform="translate(28.5 62.597825) scale(0.1 -0.1)">
       <use xlink:href="#DejaVuSans-31" transform="translate(0 0.684375)"/>
       <use xlink:href="#DejaVuSans-30" transform="translate(63.623047 0.684375)"/>
       <use xlink:href="#DejaVuSans-31" transform="translate(128.203125 38.965625) scale(0.7)"/>
       <use xlink:href="#DejaVuSans-31" transform="translate(172.739258 38.965625) scale(0.7)"/>
      </g>
     </g>
    </g>
    <g id="text_12">
     <!-- Optimality gap (norm residual) -->
     <g transform="translate(21.020312 251.576437) rotate(-90) scale(0.1 -0.1)">
      <defs>
       <path id="DejaVuSans-4f" d="M 2522 4238 
Q 1834 4238 1429 3725 
Q 1025 3213 1025 2328 
Q 1025 1447 1429 934 
Q 1834 422 2522 422 
Q 3209 422 3611 934 
Q 4013 1447 4013 2328 
Q 4013 3213 3611 3725 
Q 3209 4238 2522 4238 
z
M 2522 4750 
Q 3503 4750 4090 4092 
Q 4678 3434 4678 2328 
Q 4678 1225 4090 567 
Q 3503 -91 2522 -91 
Q 1538 -91 948 565 
Q 359 1222 359 2328 
Q 359 3434 948 4092 
Q 1538 4750 2522 4750 
z
" transform="scale(0.015625)"/>
       <path id="DejaVuSans-70" d="M 1159 525 
L 1159 -1331 
L 581 -1331 
L 581 3500 
L 1159 3500 
L 1159 2969 
Q 1341 3281 1617 3432 
Q 1894 3584 2278 3584 
Q 2916 3584 3314 3078 
Q 3713 2572 3713 1747 
Q 3713 922 3314 415 
Q 2916 -91 2278 -91 
Q 1894 -91 1617 61 
Q 1341 213 1159 525 
z
M 3116 1747 
Q 3116 2381 2855 2742 
Q 2594 3103 2138 3103 
Q 1681 3103 1420 2742 
Q 1159 2381 1159 1747 
Q 1159 1113 1420 752 
Q 1681 391 2138 391 
Q 2594 391 2855 752 
Q 3116 1113 3116 1747 
z
" transform="scale(0.015625)"/>
       <path id="DejaVuSans-6d" d="M 3328 2828 
Q 3544 3216 3844 3400 
Q 4144 3584 4550 3584 
Q 5097 3584 5394 3201 
Q 5691 2819 5691 2113 
L 5691 0 
L 5113 0 
L 5113 2094 
Q 5113 2597 4934 2840 
Q 4756 3084 4391 3084 
Q 3944 3084 3684 2787 
Q 3425 2491 3425 1978 
L 3425 0 
L 2847 0 
L 2847 2094 
Q 2847 2600 2669 2842 
Q 2491 3084 2119 3084 
Q 1678 3084 1418 2786 
Q 1159 2488 1159 1978 
L 1159 0 
L 581 0 
L 581 3500 
L 1159 3500 
L 1159 2956 
Q 1356 3278 1631 3431 
Q 1906 3584 2284 3584 
Q 2666 3584 2933 3390 
Q 3200 3197 3328 2828 
z
" transform="scale(0.015625)"/>
       <path id="DejaVuSans-6c" d="M 603 4863 
L 1178 4863 
L 1178 0 
L 603 0 
L 603 4863 
z
" transform="scale(0.015625)"/>
       <path id="DejaVuSans-79" d="M 2059 -325 
Q 1816 -950 1584 -1140 
Q 1353 -1331 966 -1331 
L 506 -1331 
L 506 -850 
L 844 -850 
Q 1081 -850 1212 -737 
Q 1344 -625 1503 -206 
L 1606 56 
L 191 3500 
L 800 3500 
L 1894 763 
L 2988 3500 
L 3597 3500 
L 2059 -325 
z
" transform="scale(0.015625)"/>
       <path id="DejaVuSans-67" d="M 2906 1791 
Q 2906 2416 2648 2759 
Q 2391 3103 1925 3103 
Q 1463 3103 1205 2759 
Q 947 2416 947 1791 
Q 947 1169 1205 825 
Q 1463 481 1925 481 
Q 2391 481 2648 825 
Q 2906 1169 2906 1791 
z
M 3481 434 
Q 3481 -459 3084 -895 
Q 2688 -1331 1869 -1331 
Q 1566 -1331 1297 -1286 
Q 1028 -1241 775 -1147 
L 775 -588 
Q 1028 -725 1275 -790 
Q 1522 -856 1778 -856 
Q 2344 -856 2625 -561 
Q 2906 -266 2906 331 
L 2906 616 
Q 2728 306 2450 153 
Q 2172 0 1784 0 
Q 1141 0 747 490 
Q 353 981 353 1791 
Q 353 2603 747 3093 
Q 1141 3584 1784 3584 
Q 2172 3584 2450 3431 
Q 2728 3278 2906 2969 
L 2906 3500 
L 3481 3500 
L 3481 434 
z
" transform="scale(0.015625)"/>
       <path id="DejaVuSans-28" d="M 1984 4856 
Q 1566 4138 1362 3434 
Q 1159 2731 1159 2009 
Q 1159 1288 1364 580 
Q 1569 -128 1984 -844 
L 1484 -844 
Q 1016 -109 783 600 
Q 550 1309 550 2009 
Q 550 2706 781 3412 
Q 1013 4119 1484 4856 
L 1984 4856 
z
" transform="scale(0.015625)"/>
       <path id="DejaVuSans-73" d="M 2834 3397 
L 2834 2853 
Q 2591 2978 2328 3040 
Q 2066 3103 1784 3103 
Q 1356 3103 1142 2972 
Q 928 2841 928 2578 
Q 928 2378 1081 2264 
Q 1234 2150 1697 2047 
L 1894 2003 
Q 2506 1872 2764 1633 
Q 3022 1394 3022 966 
Q 3022 478 2636 193 
Q 2250 -91 1575 -91 
Q 1294 -91 989 -36 
Q 684 19 347 128 
L 347 722 
Q 666 556 975 473 
Q 1284 391 1588 391 
Q 1994 391 2212 530 
Q 2431 669 2431 922 
Q 2431 1156 2273 1281 
Q 2116 1406 1581 1522 
L 1381 1569 
Q 847 1681 609 1914 
Q 372 2147 372 2553 
Q 372 3047 722 3315 
Q 1072 3584 1716 3584 
Q 2034 3584 2315 3537 
Q 2597 3491 2834 3397 
z
" transform="scale(0.015625)"/>
       <path id="DejaVuSans-64" d="M 2906 2969 
L 2906 4863 
L 3481 4863 
L 3481 0 
L 2906 0 
L 2906 525 
Q 2725 213 2448 61 
Q 2172 -91 1784 -91 
Q 1150 -91 751 415 
Q 353 922 353 1747 
Q 353 2572 751 3078 
Q 1150 3584 1784 3584 
Q 2172 3584 2448 3432 
Q 2725 3281 2906 2969 
z
M 947 1747 
Q 947 1113 1208 752 
Q 1469 391 1925 391 
Q 2381 391 2643 752 
Q 2906 1113 2906 1747 
Q 2906 2381 2643 2742 
Q 2381 3103 1925 3103 
Q 1469 3103 1208 2742 
Q 947 2381 947 1747 
z
" transform="scale(0.015625)"/>
       <path id="DejaVuSans-29" d="M 513 4856 
L 1013 4856 
Q 1481 4119 1714 3412 
Q 1947 2706 1947 2009 
Q 1947 1309 1714 600 
Q 1481 -109 1013 -844 
L 513 -844 
Q 928 -128 1133 580 
Q 1338 1288 1338 2009 
Q 1338 2731 1133 3434 
Q 928 4138 513 4856 
z
" transform="scale(0.015625)"/>
      </defs>
      <use xlink:href="#DejaVuSans-4f"/>
      <use xlink:href="#DejaVuSans-70" x="78.710938"/>
      <use xlink:href="#DejaVuSans-74" x="142.1875"/>
      <use xlink:href="#DejaVuSans-69" x="181.396484"/>
      <use xlink:href="#DejaVuSans-6d" x="209.179688"/>
      <use xlink:href="#DejaVuSans-61" x="306.591797"/>
      <use xlink:href="#DejaVuSans-6c" x="367.871094"/>
      <use xlink:href="#DejaVuSans-69" x="395.654297"/>
      <use xlink:href="#DejaVuSans-74" x="423.4375"/>
      <use xlink:href="#DejaVuSans-79" x="462.646484"/>
      <use xlink:href="#DejaVuSans-20" x="521.826172"/>
      <use xlink:href="#DejaVuSans-67" x="553.613281"/>
      <use xlink:href="#DejaVuSans-61" x="617.089844"/>
      <use xlink:href="#DejaVuSans-70" x="678.369141"/>
      <use xlink:href="#DejaVuSans-20" x="741.845703"/>
      <use xlink:href="#DejaVuSans-28" x="773.632812"/>
      <use xlink:href="#DejaVuSans-6e" x="812.646484"/>
      <use xlink:href="#DejaVuSans-6f" x="876.025391"/>
      <use xlink:href="#DejaVuSans-72" x="937.207031"/>
      <use xlink:href="#DejaVuSans-6d" x="976.570312"/>
      <use xlink:href="#DejaVuSans-20" x="1073.982422"/>
      <use xlink:href="#DejaVuSans-72" x="1105.769531"/>
      <use xlink:href="#DejaVuSans-65" x="1144.632812"/>
      <use xlink:href="#DejaVuSans-73" x="1206.15625"/>
      <use xlink:href="#DejaVuSans-69" x="1258.255859"/>
      <use xlink:href="#DejaVuSans-64" x="1286.039062"/>
      <use xlink:href="#DejaVuSans-75" x="1349.515625"/>
      <use xlink:href="#DejaVuSans-61" x="1412.894531"/>
      <use xlink:href="#DejaVuSans-6c" x="1474.173828"/>
      <use xlink:href="#DejaVuSans-29" x="1501.957031"/>
     </g>
    </g>
   </g>
   <g id="line2d_39">
    <path d="M -1 153.258609 
L 73.832727 153.262003 
L 122.804983 160.641368 
L 151.451916 168.019717 
L 171.777238 175.393755 
L 187.542783 154.804109 
L 200.424171 162.000523 
L 211.315229 164.261747 
L 220.749493 145.264618 
L 229.071104 152.633325 
L 236.515038 159.749732 
L 243.248896 167.077194 
L 249.396426 174.333181 
L 255.051606 172.988847 
L 260.287485 174.938455 
L 265.161971 181.901456 
L 269.721749 188.64086 
L 274.005001 191.528716 
L 278.043359 188.434906 
L 281.863318 178.524433 
L 285.487294 189.720066 
L 288.934418 168.109276 
L 292.221151 166.467395 
L 295.361759 170.070391 
L 298.368682 166.873637 
L 301.252839 165.086118 
L 304.023862 125.92728 
L 306.690292 133.311193 
L 309.25974 140.705831 
L 311.739013 147.697305 
L 314.134227 155.509939 
L 316.450894 164.338735 
L 318.694004 138.874509 
L 320.868084 146.281482 
L 322.977257 153.78569 
L 325.025285 152.498043 
L 327.015615 159.703965 
L 328.951408 167.26248 
L 330.835574 150.608677 
L 332.670795 158.324116 
L 334.459549 169.238434 
L 336.204132 125.969925 
L 337.906673 133.35914 
L 339.569151 140.839467 
L 341.193407 151.888784 
L 342.78116 92.76565 
L 344.334014 100.148405 
L 345.853471 107.497535 
L 347.340937 114.63662 
L 348.797732 121.051142 
L 350.225094 127.176308 
L 351.62419 137.083085 
L 352.996117 151.513231 
L 354.341911 159.345002 
L 355.662548 167.976203 
L 356.958952 176.34596 
L 358.231996 183.668686 
L 359.482507 186.289224 
L 360.711269 190.012175 
L 361.919025 169.599873 
L 363.106482 177.052048 
L 364.274311 184.373004 
L 365.42315 190.058051 
L 366.553606 190.011961 
L 367.66626 188.54538 
L 368.761662 187.656507 
L 369.84034 188.135683 
L 370.902796 183.749675 
L 371.949512 174.832721 
L 372.980947 180.579225 
L 373.997541 166.279276 
L 374.999714 179.654659 
L 375.98787 144.681533 
L 376.962396 152.107822 
L 377.923663 160.285294 
L 378.872027 154.445446 
L 379.807829 155.123015 
L 380.731398 142.362405 
L 381.64305 155.789237 
L 382.543088 113.467894 
L 383.431804 120.855398 
L 384.309481 128.382939 
L 385.176388 148.239913 
L 386.032786 77.265595 
L 386.878929 84.645339 
L 387.715057 92.025608 
L 388.541406 99.414653 
L 389.358202 106.974377 
L 390.165662 123.189142 
L 390.963999 63.83703 
L 391.753415 71.217048 
L 392.534108 78.601851 
L 393.306269 86.074734 
L 394.070083 97.022412 
L 394.825726 67.906306 
L 395.573374 75.389266 
L 396.313193 87.117693 
L 397.045345 53.568 
L 397.769987 60.990393 
L 398.487273 69.464425 
" clip-path="url(#p8fb09b55e7)" style="fill: none; stroke: #0000ff; stroke-width: 1.5; stroke-linecap: square"/>
    <defs>
     <path id="m0a9ac8638d" d="M 0 3 
C 0.795609 3 1.55874 2.683901 2.12132 2.12132 
C 2.683901 1.55874 3 0.795609 3 0 
C 3 -0.795609 2.683901 -1.55874 2.12132 -2.12132 
C 1.55874 -2.683901 0.795609 -3 0 -3 
C -0.795609 -3 -1.55874 -2.683901 -2.12132 -2.12132 
C -2.683901 -1.55874 -3 -0.795609 -3 0 
C -3 0.795609 -2.683901 1.55874 -2.12132 2.12132 
C -1.55874 2.683901 -0.795609 3 0 3 
z
" style="stroke: #0000ff"/>
    </defs>
    <g clip-path="url(#p8fb09b55e7)">
     <use xlink:href="#m0a9ac8638d" x="-1" y="153.258609" style="fill: #0000ff; stroke: #0000ff"/>
     <use xlink:href="#m0a9ac8638d" x="73.832727" y="153.262003" style="fill: #0000ff; stroke: #0000ff"/>
     <use xlink:href="#m0a9ac8638d" x="122.804983" y="160.641368" style="fill: #0000ff; stroke: #0000ff"/>
     <use xlink:href="#m0a9ac8638d" x="151.451916" y="168.019717" style="fill: #0000ff; stroke: #0000ff"/>
     <use xlink:href="#m0a9ac8638d" x="171.777238" y="175.393755" style="fill: #0000ff; stroke: #0000ff"/>
     <use xlink:href="#m0a9ac8638d" x="187.542783" y="154.804109" style="fill: #0000ff; stroke: #0000ff"/>
     <use xlink:href="#m0a9ac8638d" x="200.424171" y="162.000523" style="fill: #0000ff; stroke: #0000ff"/>
     <use xlink:href="#m0a9ac8638d" x="211.315229" y="164.261747" style="fill: #0000ff; stroke: #0000ff"/>
     <use xlink:href="#m0a9ac8638d" x="220.749493" y="145.264618" style="fill: #0000ff; stroke: #0000ff"/>
     <use xlink:href="#m0a9ac8638d" x="229.071104" y="152.633325" style="fill: #0000ff; stroke: #0000ff"/>
     <use xlink:href="#m0a9ac8638d" x="236.515038" y="159.749732" style="fill: #0000ff; stroke: #0000ff"/>
     <use xlink:href="#m0a9ac8638d" x="243.248896" y="167.077194" style="fill: #0000ff; stroke: #0000ff"/>
     <use xlink:href="#m0a9ac8638d" x="249.396426" y="174.333181" style="fill: #0000ff; stroke: #0000ff"/>
     <use xlink:href="#m0a9ac8638d" x="255.051606" y="172.988847" style="fill: #0000ff; stroke: #0000ff"/>
     <use xlink:href="#m0a9ac8638d" x="260.287485" y="174.938455" style="fill: #0000ff; stroke: #0000ff"/>
     <use xlink:href="#m0a9ac8638d" x="265.161971" y="181.901456" style="fill: #0000ff; stroke: #0000ff"/>
     <use xlink:href="#m0a9ac8638d" x="269.721749" y="188.64086" style="fill: #0000ff; stroke: #0000ff"/>
     <use xlink:href="#m0a9ac8638d" x="274.005001" y="191.528716" style="fill: #0000ff; stroke: #0000ff"/>
     <use xlink:href="#m0a9ac8638d" x="278.043359" y="188.434906" style="fill: #0000ff; stroke: #0000ff"/>
     <use xlink:href="#m0a9ac8638d" x="281.863318" y="178.524433" style="fill: #0000ff; stroke: #0000ff"/>
     <use xlink:href="#m0a9ac8638d" x="285.487294" y="189.720066" style="fill: #0000ff; stroke: #0000ff"/>
     <use xlink:href="#m0a9ac8638d" x="288.934418" y="168.109276" style="fill: #0000ff; stroke: #0000ff"/>
     <use xlink:href="#m0a9ac8638d" x="292.221151" y="166.467395" style="fill: #0000ff; stroke: #0000ff"/>
     <use xlink:href="#m0a9ac8638d" x="295.361759" y="170.070391" style="fill: #0000ff; stroke: #0000ff"/>
     <use xlink:href="#m0a9ac8638d" x="298.368682" y="166.873637" style="fill: #0000ff; stroke: #0000ff"/>
     <use xlink:href="#m0a9ac8638d" x="301.252839" y="165.086118" style="fill: #0000ff; stroke: #0000ff"/>
     <use xlink:href="#m0a9ac8638d" x="304.023862" y="125.92728" style="fill: #0000ff; stroke: #0000ff"/>
     <use xlink:href="#m0a9ac8638d" x="306.690292" y="133.311193" style="fill: #0000ff; stroke: #0000ff"/>
     <use xlink:href="#m0a9ac8638d" x="309.25974" y="140.705831" style="fill: #0000ff; stroke: #0000ff"/>
     <use xlink:href="#m0a9ac8638d" x="311.739013" y="147.697305" style="fill: #0000ff; stroke: #0000ff"/>
     <use xlink:href="#m0a9ac8638d" x="314.134227" y="155.509939" style="fill: #0000ff; stroke: #0000ff"/>
     <use xlink:href="#m0a9ac8638d" x="316.450894" y="164.338735" style="fill: #0000ff; stroke: #0000ff"/>
     <use xlink:href="#m0a9ac8638d" x="318.694004" y="138.874509" style="fill: #0000ff; stroke: #0000ff"/>
     <use xlink:href="#m0a9ac8638d" x="320.868084" y="146.281482" style="fill: #0000ff; stroke: #0000ff"/>
     <use xlink:href="#m0a9ac8638d" x="322.977257" y="153.78569" style="fill: #0000ff; stroke: #0000ff"/>
     <use xlink:href="#m0a9ac8638d" x="325.025285" y="152.498043" style="fill: #0000ff; stroke: #0000ff"/>
     <use xlink:href="#m0a9ac8638d" x="327.015615" y="159.703965" style="fill: #0000ff; stroke: #0000ff"/>
     <use xlink:href="#m0a9ac8638d" x="328.951408" y="167.26248" style="fill: #0000ff; stroke: #0000ff"/>
     <use xlink:href="#m0a9ac8638d" x="330.835574" y="150.608677" style="fill: #0000ff; stroke: #0000ff"/>
     <use xlink:href="#m0a9ac8638d" x="332.670795" y="158.324116" style="fill: #0000ff; stroke: #0000ff"/>
     <use xlink:href="#m0a9ac8638d" x="334.459549" y="169.238434" style="fill: #0000ff; stroke: #0000ff"/>
     <use xlink:href="#m0a9ac8638d" x="336.204132" y="125.969925" style="fill: #0000ff; stroke: #0000ff"/>
     <use xlink:href="#m0a9ac8638d" x="337.906673" y="133.35914" style="fill: #0000ff; stroke: #0000ff"/>
     <use xlink:href="#m0a9ac8638d" x="339.569151" y="140.839467" style="fill: #0000ff; stroke: #0000ff"/>
     <use xlink:href="#m0a9ac8638d" x="341.193407" y="151.888784" style="fill: #0000ff; stroke: #0000ff"/>
     <use xlink:href="#m0a9ac8638d" x="342.78116" y="92.76565" style="fill: #0000ff; stroke: #0000ff"/>
     <use xlink:href="#m0a9ac8638d" x="344.334014" y="100.148405" style="fill: #0000ff; stroke: #0000ff"/>
     <use xlink:href="#m0a9ac8638d" x="345.853471" y="107.497535" style="fill: #0000ff; stroke: #0000ff"/>
     <use xlink:href="#m0a9ac8638d" x="347.340937" y="114.63662" style="fill: #0000ff; stroke: #0000ff"/>
     <use xlink:href="#m0a9ac8638d" x="348.797732" y="121.051142" style="fill: #0000ff; stroke: #0000ff"/>
     <use xlink:href="#m0a9ac8638d" x="350.225094" y="127.176308" style="fill: #0000ff; stroke: #0000ff"/>
     <use xlink:href="#m0a9ac8638d" x="351.62419" y="137.083085" style="fill: #0000ff; stroke: #0000ff"/>
     <use xlink:href="#m0a9ac8638d" x="352.996117" y="151.513231" style="fill: #0000ff; stroke: #0000ff"/>
     <use xlink:href="#m0a9ac8638d" x="354.341911" y="159.345002" style="fill: #0000ff; stroke: #0000ff"/>
     <use xlink:href="#m0a9ac8638d" x="355.662548" y="167.976203" style="fill: #0000ff; stroke: #0000ff"/>
     <use xlink:href="#m0a9ac8638d" x="356.958952" y="176.34596" style="fill: #0000ff; stroke: #0000ff"/>
     <use xlink:href="#m0a9ac8638d" x="358.231996" y="183.668686" style="fill: #0000ff; stroke: #0000ff"/>
     <use xlink:href="#m0a9ac8638d" x="359.482507" y="186.289224" style="fill: #0000ff; stroke: #0000ff"/>
     <use xlink:href="#m0a9ac8638d" x="360.711269" y="190.012175" style="fill: #0000ff; stroke: #0000ff"/>
     <use xlink:href="#m0a9ac8638d" x="361.919025" y="169.599873" style="fill: #0000ff; stroke: #0000ff"/>
     <use xlink:href="#m0a9ac8638d" x="363.106482" y="177.052048" style="fill: #0000ff; stroke: #0000ff"/>
     <use xlink:href="#m0a9ac8638d" x="364.274311" y="184.373004" style="fill: #0000ff; stroke: #0000ff"/>
     <use xlink:href="#m0a9ac8638d" x="365.42315" y="190.058051" style="fill: #0000ff; stroke: #0000ff"/>
     <use xlink:href="#m0a9ac8638d" x="366.553606" y="190.011961" style="fill: #0000ff; stroke: #0000ff"/>
     <use xlink:href="#m0a9ac8638d" x="367.66626" y="188.54538" style="fill: #0000ff; stroke: #0000ff"/>
     <use xlink:href="#m0a9ac8638d" x="368.761662" y="187.656507" style="fill: #0000ff; stroke: #0000ff"/>
     <use xlink:href="#m0a9ac8638d" x="369.84034" y="188.135683" style="fill: #0000ff; stroke: #0000ff"/>
     <use xlink:href="#m0a9ac8638d" x="370.902796" y="183.749675" style="fill: #0000ff; stroke: #0000ff"/>
     <use xlink:href="#m0a9ac8638d" x="371.949512" y="174.832721" style="fill: #0000ff; stroke: #0000ff"/>
     <use xlink:href="#m0a9ac8638d" x="372.980947" y="180.579225" style="fill: #0000ff; stroke: #0000ff"/>
     <use xlink:href="#m0a9ac8638d" x="373.997541" y="166.279276" style="fill: #0000ff; stroke: #0000ff"/>
     <use xlink:href="#m0a9ac8638d" x="374.999714" y="179.654659" style="fill: #0000ff; stroke: #0000ff"/>
     <use xlink:href="#m0a9ac8638d" x="375.98787" y="144.681533" style="fill: #0000ff; stroke: #0000ff"/>
     <use xlink:href="#m0a9ac8638d" x="376.962396" y="152.107822" style="fill: #0000ff; stroke: #0000ff"/>
     <use xlink:href="#m0a9ac8638d" x="377.923663" y="160.285294" style="fill: #0000ff; stroke: #0000ff"/>
     <use xlink:href="#m0a9ac8638d" x="378.872027" y="154.445446" style="fill: #0000ff; stroke: #0000ff"/>
     <use xlink:href="#m0a9ac8638d" x="379.807829" y="155.123015" style="fill: #0000ff; stroke: #0000ff"/>
     <use xlink:href="#m0a9ac8638d" x="380.731398" y="142.362405" style="fill: #0000ff; stroke: #0000ff"/>
     <use xlink:href="#m0a9ac8638d" x="381.64305" y="155.789237" style="fill: #0000ff; stroke: #0000ff"/>
     <use xlink:href="#m0a9ac8638d" x="382.543088" y="113.467894" style="fill: #0000ff; stroke: #0000ff"/>
     <use xlink:href="#m0a9ac8638d" x="383.431804" y="120.855398" style="fill: #0000ff; stroke: #0000ff"/>
     <use xlink:href="#m0a9ac8638d" x="384.309481" y="128.382939" style="fill: #0000ff; stroke: #0000ff"/>
     <use xlink:href="#m0a9ac8638d" x="385.176388" y="148.239913" style="fill: #0000ff; stroke: #0000ff"/>
     <use xlink:href="#m0a9ac8638d" x="386.032786" y="77.265595" style="fill: #0000ff; stroke: #0000ff"/>
     <use xlink:href="#m0a9ac8638d" x="386.878929" y="84.645339" style="fill: #0000ff; stroke: #0000ff"/>
     <use xlink:href="#m0a9ac8638d" x="387.715057" y="92.025608" style="fill: #0000ff; stroke: #0000ff"/>
     <use xlink:href="#m0a9ac8638d" x="388.541406" y="99.414653" style="fill: #0000ff; stroke: #0000ff"/>
     <use xlink:href="#m0a9ac8638d" x="389.358202" y="106.974377" style="fill: #0000ff; stroke: #0000ff"/>
     <use xlink:href="#m0a9ac8638d" x="390.165662" y="123.189142" style="fill: #0000ff; stroke: #0000ff"/>
     <use xlink:href="#m0a9ac8638d" x="390.963999" y="63.83703" style="fill: #0000ff; stroke: #0000ff"/>
     <use xlink:href="#m0a9ac8638d" x="391.753415" y="71.217048" style="fill: #0000ff; stroke: #0000ff"/>
     <use xlink:href="#m0a9ac8638d" x="392.534108" y="78.601851" style="fill: #0000ff; stroke: #0000ff"/>
     <use xlink:href="#m0a9ac8638d" x="393.306269" y="86.074734" style="fill: #0000ff; stroke: #0000ff"/>
     <use xlink:href="#m0a9ac8638d" x="394.070083" y="97.022412" style="fill: #0000ff; stroke: #0000ff"/>
     <use xlink:href="#m0a9ac8638d" x="394.825726" y="67.906306" style="fill: #0000ff; stroke: #0000ff"/>
     <use xlink:href="#m0a9ac8638d" x="395.573374" y="75.389266" style="fill: #0000ff; stroke: #0000ff"/>
     <use xlink:href="#m0a9ac8638d" x="396.313193" y="87.117693" style="fill: #0000ff; stroke: #0000ff"/>
     <use xlink:href="#m0a9ac8638d" x="397.045345" y="53.568" style="fill: #0000ff; stroke: #0000ff"/>
     <use xlink:href="#m0a9ac8638d" x="397.769987" y="60.990393" style="fill: #0000ff; stroke: #0000ff"/>
     <use xlink:href="#m0a9ac8638d" x="398.487273" y="69.464425" style="fill: #0000ff; stroke: #0000ff"/>
    </g>
   </g>
   <g id="line2d_40">
    <path d="M -1 189.390423 
L 73.832727 189.390441 
L 122.804983 189.450462 
L 151.451916 189.532251 
L 171.777238 189.728748 
L 187.542783 191.165495 
L 200.424171 193.866263 
L 211.315229 196.634791 
L 220.749493 199.749239 
L 229.071104 202.429236 
L 236.515038 210.842023 
L 243.248896 238.854851 
L 249.396426 295.488 
" clip-path="url(#p8fb09b55e7)" style="fill: none; stroke: #ff0000; stroke-width: 1.5; stroke-linecap: square"/>
    <defs>
     <path id="mec45a3fb27" d="M 0 3 
C 0.795609 3 1.55874 2.683901 2.12132 2.12132 
C 2.683901 1.55874 3 0.795609 3 0 
C 3 -0.795609 2.683901 -1.55874 2.12132 -2.12132 
C 1.55874 -2.683901 0.795609 -3 0 -3 
C -0.795609 -3 -1.55874 -2.683901 -2.12132 -2.12132 
C -2.683901 -1.55874 -3 -0.795609 -3 0 
C -3 0.795609 -2.683901 1.55874 -2.12132 2.12132 
C -1.55874 2.683901 -0.795609 3 0 3 
z
" style="stroke: #ff0000"/>
    </defs>
    <g clip-path="url(#p8fb09b55e7)">
     <use xlink:href="#mec45a3fb27" x="-1" y="189.390423" style="fill: #ff0000; stroke: #ff0000"/>
     <use xlink:href="#mec45a3fb27" x="73.832727" y="189.390441" style="fill: #ff0000; stroke: #ff0000"/>
     <use xlink:href="#mec45a3fb27" x="122.804983" y="189.450462" style="fill: #ff0000; stroke: #ff0000"/>
     <use xlink:href="#mec45a3fb27" x="151.451916" y="189.532251" style="fill: #ff0000; stroke: #ff0000"/>
     <use xlink:href="#mec45a3fb27" x="171.777238" y="189.728748" style="fill: #ff0000; stroke: #ff0000"/>
     <use xlink:href="#mec45a3fb27" x="187.542783" y="191.165495" style="fill: #ff0000; stroke: #ff0000"/>
     <use xlink:href="#mec45a3fb27" x="200.424171" y="193.866263" style="fill: #ff0000; stroke: #ff0000"/>
     <use xlink:href="#mec45a3fb27" x="211.315229" y="196.634791" style="fill: #ff0000; stroke: #ff0000"/>
     <use xlink:href="#mec45a3fb27" x="220.749493" y="199.749239" style="fill: #ff0000; stroke: #ff0000"/>
     <use xlink:href="#mec45a3fb27" x="229.071104" y="202.429236" style="fill: #ff0000; stroke: #ff0000"/>
     <use xlink:href="#mec45a3fb27" x="236.515038" y="210.842023" style="fill: #ff0000; stroke: #ff0000"/>
     <use xlink:href="#mec45a3fb27" x="243.248896" y="238.854851" style="fill: #ff0000; stroke: #ff0000"/>
     <use xlink:href="#mec45a3fb27" x="249.396426" y="295.488" style="fill: #ff0000; stroke: #ff0000"/>
    </g>
   </g>
   <g id="line2d_41">
    <path d="M -1 285.654026 
L 73.832727 285.680657 
" clip-path="url(#p8fb09b55e7)" style="fill: none; stroke: #000000; stroke-width: 1.5; stroke-linecap: square"/>
    <defs>
     <path id="m30d18f0118" d="M 0 3 
C 0.795609 3 1.55874 2.683901 2.12132 2.12132 
C 2.683901 1.55874 3 0.795609 3 0 
C 3 -0.795609 2.683901 -1.55874 2.12132 -2.12132 
C 1.55874 -2.683901 0.795609 -3 0 -3 
C -0.795609 -3 -1.55874 -2.683901 -2.12132 -2.12132 
C -2.683901 -1.55874 -3 -0.795609 -3 0 
C -3 0.795609 -2.683901 1.55874 -2.12132 2.12132 
C -1.55874 2.683901 -0.795609 3 0 3 
z
" style="stroke: #000000"/>
    </defs>
    <g clip-path="url(#p8fb09b55e7)">
     <use xlink:href="#m30d18f0118" x="-1" y="285.654026" style="stroke: #000000"/>
     <use xlink:href="#m30d18f0118" x="73.832727" y="285.680657" style="stroke: #000000"/>
    </g>
   </g>
   <g id="patch_3">
    <path d="M 57.6 307.584 
L 57.6 41.472 
" style="fill: none; stroke: #000000; stroke-width: 0.8; stroke-linejoin: miter; stroke-linecap: square"/>
   </g>
   <g id="patch_4">
    <path d="M 414.72 307.584 
L 414.72 41.472 
" style="fill: none; stroke: #000000; stroke-width: 0.8; stroke-linejoin: miter; stroke-linecap: square"/>
   </g>
   <g id="patch_5">
    <path d="M 57.6 307.584 
L 414.72 307.584 
" style="fill: none; stroke: #000000; stroke-width: 0.8; stroke-linejoin: miter; stroke-linecap: square"/>
   </g>
   <g id="patch_6">
    <path d="M 57.6 41.472 
L 414.72 41.472 
" style="fill: none; stroke: #000000; stroke-width: 0.8; stroke-linejoin: miter; stroke-linecap: square"/>
   </g>
   <g id="legend_1">
    <g id="patch_7">
     <path d="M 63.9 88.302938 
L 257.234062 88.302938 
Q 259.034063 88.302938 259.034063 86.502938 
L 259.034063 47.772 
Q 259.034063 45.972 257.234062 45.972 
L 63.9 45.972 
Q 62.1 45.972 62.1 47.772 
L 62.1 86.502938 
Q 62.1 88.302938 63.9 88.302938 
z
" style="fill: #ffffff; opacity: 0.8; stroke: #cccccc; stroke-linejoin: miter"/>
    </g>
    <g id="line2d_42">
     <path d="M 65.7 53.260594 
L 74.7 53.260594 
L 83.7 53.260594 
" style="fill: none; stroke: #0000ff; stroke-width: 1.5; stroke-linecap: square"/>
     <g>
      <use xlink:href="#m0a9ac8638d" x="74.7" y="53.260594" style="fill: #0000ff; stroke: #0000ff"/>
     </g>
    </g>
    <g id="text_13">
     <!-- Newton no backtr -->
     <g transform="translate(90.9 56.410594) scale(0.09 -0.09)">
      <defs>
       <path id="DejaVuSans-4e" d="M 628 4666 
L 1478 4666 
L 3547 763 
L 3547 4666 
L 4159 4666 
L 4159 0 
L 3309 0 
L 1241 3903 
L 1241 0 
L 628 0 
L 628 4666 
z
" transform="scale(0.015625)"/>
       <path id="DejaVuSans-77" d="M 269 3500 
L 844 3500 
L 1563 769 
L 2278 3500 
L 2956 3500 
L 3675 769 
L 4391 3500 
L 4966 3500 
L 4050 0 
L 3372 0 
L 2619 2869 
L 1863 0 
L 1184 0 
L 269 3500 
z
" transform="scale(0.015625)"/>
       <path id="DejaVuSans-62" d="M 3116 1747 
Q 3116 2381 2855 2742 
Q 2594 3103 2138 3103 
Q 1681 3103 1420 2742 
Q 1159 2381 1159 1747 
Q 1159 1113 1420 752 
Q 1681 391 2138 391 
Q 2594 391 2855 752 
Q 3116 1113 3116 1747 
z
M 1159 2969 
Q 1341 3281 1617 3432 
Q 1894 3584 2278 3584 
Q 2916 3584 3314 3078 
Q 3713 2572 3713 1747 
Q 3713 922 3314 415 
Q 2916 -91 2278 -91 
Q 1894 -91 1617 61 
Q 1341 213 1159 525 
L 1159 0 
L 581 0 
L 581 4863 
L 1159 4863 
L 1159 2969 
z
" transform="scale(0.015625)"/>
       <path id="DejaVuSans-6b" d="M 581 4863 
L 1159 4863 
L 1159 1991 
L 2875 3500 
L 3609 3500 
L 1753 1863 
L 3688 0 
L 2938 0 
L 1159 1709 
L 1159 0 
L 581 0 
L 581 4863 
z
" transform="scale(0.015625)"/>
      </defs>
      <use xlink:href="#DejaVuSans-4e"/>
      <use xlink:href="#DejaVuSans-65" x="74.804688"/>
      <use xlink:href="#DejaVuSans-77" x="136.328125"/>
      <use xlink:href="#DejaVuSans-74" x="218.115234"/>
      <use xlink:href="#DejaVuSans-6f" x="257.324219"/>
      <use xlink:href="#DejaVuSans-6e" x="318.505859"/>
      <use xlink:href="#DejaVuSans-20" x="381.884766"/>
      <use xlink:href="#DejaVuSans-6e" x="413.671875"/>
      <use xlink:href="#DejaVuSans-6f" x="477.050781"/>
      <use xlink:href="#DejaVuSans-20" x="538.232422"/>
      <use xlink:href="#DejaVuSans-62" x="570.019531"/>
      <use xlink:href="#DejaVuSans-61" x="633.496094"/>
      <use xlink:href="#DejaVuSans-63" x="694.775391"/>
      <use xlink:href="#DejaVuSans-6b" x="749.755859"/>
      <use xlink:href="#DejaVuSans-74" x="807.666016"/>
      <use xlink:href="#DejaVuSans-72" x="846.875"/>
     </g>
    </g>
    <g id="line2d_43">
     <path d="M 65.7 66.470906 
L 74.7 66.470906 
L 83.7 66.470906 
" style="fill: none; stroke: #ff0000; stroke-width: 1.5; stroke-linecap: square"/>
     <g>
      <use xlink:href="#mec45a3fb27" x="74.7" y="66.470906" style="fill: #ff0000; stroke: #ff0000"/>
     </g>
    </g>
    <g id="text_14">
     <!-- Newton with backtr -->
     <g transform="translate(90.9 69.620906) scale(0.09 -0.09)">
      <defs>
       <path id="DejaVuSans-68" d="M 3513 2113 
L 3513 0 
L 2938 0 
L 2938 2094 
Q 2938 2591 2744 2837 
Q 2550 3084 2163 3084 
Q 1697 3084 1428 2787 
Q 1159 2491 1159 1978 
L 1159 0 
L 581 0 
L 581 4863 
L 1159 4863 
L 1159 2956 
Q 1366 3272 1645 3428 
Q 1925 3584 2291 3584 
Q 2894 3584 3203 3211 
Q 3513 2838 3513 2113 
z
" transform="scale(0.015625)"/>
      </defs>
      <use xlink:href="#DejaVuSans-4e"/>
      <use xlink:href="#DejaVuSans-65" x="74.804688"/>
      <use xlink:href="#DejaVuSans-77" x="136.328125"/>
      <use xlink:href="#DejaVuSans-74" x="218.115234"/>
      <use xlink:href="#DejaVuSans-6f" x="257.324219"/>
      <use xlink:href="#DejaVuSans-6e" x="318.505859"/>
      <use xlink:href="#DejaVuSans-20" x="381.884766"/>
      <use xlink:href="#DejaVuSans-77" x="413.671875"/>
      <use xlink:href="#DejaVuSans-69" x="495.458984"/>
      <use xlink:href="#DejaVuSans-74" x="523.242188"/>
      <use xlink:href="#DejaVuSans-68" x="562.451172"/>
      <use xlink:href="#DejaVuSans-20" x="625.830078"/>
      <use xlink:href="#DejaVuSans-62" x="657.617188"/>
      <use xlink:href="#DejaVuSans-61" x="721.09375"/>
      <use xlink:href="#DejaVuSans-63" x="782.373047"/>
      <use xlink:href="#DejaVuSans-6b" x="837.353516"/>
      <use xlink:href="#DejaVuSans-74" x="895.263672"/>
      <use xlink:href="#DejaVuSans-72" x="934.472656"/>
     </g>
    </g>
    <g id="line2d_44">
     <path d="M 65.7 79.681219 
L 74.7 79.681219 
L 83.7 79.681219 
" style="fill: none; stroke: #000000; stroke-width: 1.5; stroke-linecap: square"/>
     <g>
      <use xlink:href="#m30d18f0118" x="74.7" y="79.681219" style="stroke: #000000"/>
     </g>
    </g>
    <g id="text_15">
     <!-- Newton no backtr with convex initial -->
     <g transform="translate(90.9 82.831219) scale(0.09 -0.09)">
      <defs>
       <path id="DejaVuSans-76" d="M 191 3500 
L 800 3500 
L 1894 563 
L 2988 3500 
L 3597 3500 
L 2284 0 
L 1503 0 
L 191 3500 
z
" transform="scale(0.015625)"/>
       <path id="DejaVuSans-78" d="M 3513 3500 
L 2247 1797 
L 3578 0 
L 2900 0 
L 1881 1375 
L 863 0 
L 184 0 
L 1544 1831 
L 300 3500 
L 978 3500 
L 1906 2253 
L 2834 3500 
L 3513 3500 
z
" transform="scale(0.015625)"/>
      </defs>
      <use xlink:href="#DejaVuSans-4e"/>
      <use xlink:href="#DejaVuSans-65" x="74.804688"/>
      <use xlink:href="#DejaVuSans-77" x="136.328125"/>
      <use xlink:href="#DejaVuSans-74" x="218.115234"/>
      <use xlink:href="#DejaVuSans-6f" x="257.324219"/>
      <use xlink:href="#DejaVuSans-6e" x="318.505859"/>
      <use xlink:href="#DejaVuSans-20" x="381.884766"/>
      <use xlink:href="#DejaVuSans-6e" x="413.671875"/>
      <use xlink:href="#DejaVuSans-6f" x="477.050781"/>
      <use xlink:href="#DejaVuSans-20" x="538.232422"/>
      <use xlink:href="#DejaVuSans-62" x="570.019531"/>
      <use xlink:href="#DejaVuSans-61" x="633.496094"/>
      <use xlink:href="#DejaVuSans-63" x="694.775391"/>
      <use xlink:href="#DejaVuSans-6b" x="749.755859"/>
      <use xlink:href="#DejaVuSans-74" x="807.666016"/>
      <use xlink:href="#DejaVuSans-72" x="846.875"/>
      <use xlink:href="#DejaVuSans-20" x="887.988281"/>
      <use xlink:href="#DejaVuSans-77" x="919.775391"/>
      <use xlink:href="#DejaVuSans-69" x="1001.5625"/>
      <use xlink:href="#DejaVuSans-74" x="1029.345703"/>
      <use xlink:href="#DejaVuSans-68" x="1068.554688"/>
      <use xlink:href="#DejaVuSans-20" x="1131.933594"/>
      <use xlink:href="#DejaVuSans-63" x="1163.720703"/>
      <use xlink:href="#DejaVuSans-6f" x="1218.701172"/>
      <use xlink:href="#DejaVuSans-6e" x="1279.882812"/>
      <use xlink:href="#DejaVuSans-76" x="1343.261719"/>
      <use xlink:href="#DejaVuSans-65" x="1402.441406"/>
      <use xlink:href="#DejaVuSans-78" x="1462.214844"/>
      <use xlink:href="#DejaVuSans-20" x="1521.394531"/>
      <use xlink:href="#DejaVuSans-69" x="1553.181641"/>
      <use xlink:href="#DejaVuSans-6e" x="1580.964844"/>
      <use xlink:href="#DejaVuSans-69" x="1644.34375"/>
      <use xlink:href="#DejaVuSans-74" x="1672.126953"/>
      <use xlink:href="#DejaVuSans-69" x="1711.335938"/>
      <use xlink:href="#DejaVuSans-61" x="1739.119141"/>
      <use xlink:href="#DejaVuSans-6c" x="1800.398438"/>
     </g>
    </g>
   </g>
  </g>
 </g>
 <defs>
  <clipPath id="p8fb09b55e7">
   <rect x="57.6" y="41.472" width="357.12" height="266.112"/>
  </clipPath>
 </defs>
</svg>
